<svg width="80" height="80" viewBox="0 0 80 80" fill="none" xmlns="http://www.w3.org/2000/svg">
<path d="M41.8856 31.1954C41.7899 31.1954 41.6942 31.1776 41.602 31.1422C41.2013 30.9861 41.0027 30.5322 41.1587 30.1315L49.7685 8.09635C49.9245 7.69565 50.3784 7.49707 50.7792 7.65309C51.1799 7.80912 51.3784 8.26301 51.2224 8.66371L42.6126 30.6989C42.492 31.0074 42.1977 31.1954 41.8856 31.1954Z" fill="#F1ECDC"/>
<path d="M28.7722 22.5291H35.765V25.99C35.765 26.4227 36.1161 26.7702 36.5452 26.7702C36.9742 26.7702 37.3253 26.4191 37.3253 25.99V15.9051C37.3253 15.4725 36.9742 15.1249 36.5452 15.1249C36.1161 15.1249 35.765 15.476 35.765 15.9051V20.9689H29.9672L33.4104 13.1285C33.5842 12.7349 33.4033 12.2739 33.0097 12.1002C32.6161 11.9264 32.1551 12.1073 31.9814 12.5009L28.0559 21.4369C27.9495 21.678 27.9743 21.9582 28.1162 22.178C28.2616 22.3979 28.5063 22.5326 28.7687 22.5326L28.7722 22.5291Z" fill="#F1ECDC"/>
<path d="M21.092 19.0033L21.0869 19.0067C18.8041 20.5203 15.9646 22.403 16.2091 25.8437C16.2375 26.2515 16.5779 26.5706 16.9892 26.5706H24.9714C25.404 26.5706 25.7516 26.2196 25.7516 25.7905C25.7516 25.3614 25.4005 25.0103 24.9714 25.0103H17.7836C18.0274 22.915 20.0105 21.5977 21.9367 20.3184L21.9573 20.3047L21.9589 20.3037C23.8377 19.0594 25.6097 17.8858 25.7445 15.9998C25.7906 15.3828 25.5494 14.358 24.7232 13.5069C24.1168 12.8828 22.9927 12.1524 21.0672 12.2339C17.5566 12.3793 16.6169 14.5566 16.5779 14.6488C16.4148 15.0459 16.6027 15.5034 16.9999 15.67C17.4006 15.8367 17.8545 15.6452 18.0212 15.2481C18.0407 15.2076 18.6707 13.8995 21.131 13.7977C22.1948 13.7516 23.053 14.0317 23.6026 14.5991C24.0601 15.0707 24.2055 15.6417 24.1877 15.8899C24.1063 17.0089 22.6491 17.9759 21.1018 19.0027L21.0956 19.0069L21.092 19.0033Z" fill="#F1ECDC"/>
<path d="M54.5838 13.5934H62.2185C62.0377 16.2028 60.9423 17.3447 59.6909 18.6493L59.6902 18.65C58.2363 20.1642 56.5874 21.884 56.4562 25.9655C56.442 26.3982 56.7788 26.7563 57.2115 26.7705H57.2363C57.6547 26.7705 58.0022 26.4372 58.0164 26.0152C58.1299 22.533 59.4349 21.1712 60.8178 19.7315L60.8246 19.7244C62.2906 18.1948 63.8071 16.6123 63.8071 12.8132C63.8071 12.3806 63.4561 12.0331 63.027 12.0331H54.5838C54.1512 12.0331 53.8037 12.3842 53.8037 12.8132C53.8037 13.2423 54.1548 13.5934 54.5838 13.5934Z" fill="#F1ECDC"/>
<path d="M27.1164 57.8408C27.2795 57.8408 27.4461 57.7911 27.5844 57.6847L34.6695 52.3337C35.0134 52.0749 35.0808 51.5855 34.822 51.2416C34.5631 50.8976 34.0737 50.8302 33.7298 51.0891L26.6448 56.44C26.3008 56.6989 26.2334 57.1883 26.4923 57.5322C26.6447 57.7344 26.8788 57.8408 27.1164 57.8408Z" fill="#F1ECDC"/>
<path d="M27.5844 64.8295C27.4461 64.9359 27.2795 64.9855 27.1164 64.9855C26.8788 64.9855 26.6447 64.8791 26.4923 64.677C26.2334 64.333 26.3008 63.8437 26.6448 63.5848L33.7298 58.2338C34.0737 57.975 34.5631 58.0423 34.822 58.3863C35.0808 58.7303 35.0134 59.2197 34.6695 59.4785L27.5844 64.8295Z" fill="#F1ECDC"/>
<path d="M52.4134 51.0852L45.3283 56.4361C44.9844 56.695 44.917 57.1844 45.1759 57.5283C45.3283 57.7305 45.5624 57.8368 45.8 57.8368C45.9631 57.8368 46.1297 57.7872 46.268 57.6808L53.3531 52.3298C53.697 52.071 53.7644 51.5816 53.5056 51.2376C53.2467 50.8937 52.7573 50.8263 52.4134 51.0852Z" fill="#F1ECDC"/>
<path d="M45.3283 63.5815L52.4134 58.2306C52.7573 57.9717 53.2467 58.039 53.5056 58.383C53.7644 58.727 53.697 59.2164 53.3531 59.4752L46.268 64.8262C46.1297 64.9326 45.9631 64.9823 45.8 64.9823C45.5624 64.9823 45.3283 64.8759 45.1759 64.6737C44.917 64.3298 44.9844 63.8404 45.3283 63.5815Z" fill="#F1ECDC"/>
<path fill-rule="evenodd" clip-rule="evenodd" d="M10.3329 34.8546H69.6654C70.0945 34.8546 70.4456 35.2022 70.4456 35.6348V71.6201C70.4456 72.0492 70.098 72.4002 69.6654 72.4002H10.3329C9.9038 72.4002 9.55273 72.0527 9.55273 71.6201V35.6348C9.55273 35.2057 9.90025 34.8546 10.3329 34.8546ZM22.0987 70.8364H39.219V45.0744H22.0987V70.8364ZM40.7793 45.0744V70.8364H57.8996V45.0744H40.7793ZM59.4634 70.8364H68.8888V36.4149H11.1201V70.8364H20.542V44.2942C20.542 43.8651 20.8895 43.5141 21.3221 43.5141H58.6833C59.1124 43.5141 59.4634 43.8616 59.4634 44.2942V70.8364Z" fill="#F1ECDC"/>
</svg>
