<svg width="80" height="80" viewBox="0 0 80 80" fill="none" xmlns="http://www.w3.org/2000/svg">
<mask id="path-1-outside-1_2204_3819" maskUnits="userSpaceOnUse" x="4.49609" y="4.0022" width="71" height="72" fill="black">
<rect fill="white" x="4.49609" y="4.0022" width="71" height="72"/>
<path d="M24.9813 44.1378C24.8667 45.4195 24.7262 46.5669 24.5544 47.2853C24.3617 48.1019 24.7158 48.5567 24.9448 48.7583C25.2312 49.0115 25.6165 49.1356 26.0746 49.1356C26.4287 49.1356 26.8295 49.0581 27.2617 48.903C29.1464 48.226 32.567 45.5333 33.4416 39.7447C33.7225 37.8909 36.6695 37.3424 40.081 36.7074L40.0902 36.7057C44.3542 35.915 49.6595 34.9278 51.9503 30.7156C52.1325 30.3797 52.0075 29.9662 51.6691 29.7853C51.3307 29.6044 50.9142 29.7285 50.732 30.0644C48.7536 33.7029 44.0158 34.5815 39.835 35.3568C35.899 36.0855 32.4993 36.7161 32.0724 39.5431C31.3851 44.0913 28.9381 46.6755 27.0482 47.5127C26.3714 47.8125 25.9913 47.7763 25.8872 47.7401C25.8872 47.7143 25.8872 47.6626 25.9028 47.5954C26.4963 45.0733 26.7514 38.0081 26.7931 36.6489L34.0872 26.9066C42.2933 24.4921 49.5137 19.3895 49.8452 19.1553L49.8469 19.154C49.9094 19.1075 49.9666 19.0558 50.0083 18.9887L59.1455 6.08331C59.3641 5.77321 59.2912 5.34424 58.9789 5.12717C58.6665 4.9101 58.2344 4.98246 58.0157 5.29256L48.9462 18.11C48.0611 18.7251 41.069 23.4748 33.4781 25.661C33.3323 25.7023 33.2073 25.7902 33.1136 25.9091L25.5488 36.008C25.4655 36.1217 25.4186 36.2561 25.4134 36.3956C25.4134 36.4473 25.3249 39.4243 25.1166 42.3599C24.4554 42.8147 22.7217 44.0241 19.3948 46.3757C11.1023 52.2412 6.2683 53.6643 6.01907 53.7377L6.00927 53.7406C5.63962 53.8388 5.42095 54.2161 5.51987 54.583C5.60318 54.8879 5.88432 55.0895 6.18629 55.0895C6.24356 55.0895 6.30604 55.0792 6.36851 55.0637L6.37186 55.0627C6.62006 54.9934 11.5241 53.6224 20.1966 47.5024C22.6749 45.7503 24.1274 44.7322 24.9761 44.143L24.9813 44.1378Z"/>
<path d="M28.584 19.3349C28.6881 19.6088 28.9536 19.7742 29.2296 19.7742C29.3129 19.7742 29.3962 19.7587 29.4743 19.7277C29.8335 19.5933 30.0105 19.1954 29.8751 18.8439L26.7878 10.8123C26.6524 10.4609 26.2515 10.28 25.8975 10.4143C25.5382 10.5487 25.3612 10.9467 25.4966 11.2981L28.584 19.3297V19.3349Z"/>
<path d="M22.3888 23.7486C22.2118 23.7486 22.0348 23.6814 21.8994 23.5471L13.5536 15.2622C13.2829 14.9934 13.2829 14.5593 13.5536 14.2906C13.8244 14.0218 14.2617 14.0218 14.5324 14.2906L22.8782 22.5754C23.149 22.8442 23.149 23.2783 22.8782 23.5471C22.7429 23.6814 22.5659 23.7486 22.3888 23.7486Z"/>
<path d="M18.1405 30.4933L10.0498 27.4285V27.4336C9.69058 27.2993 9.51357 26.9065 9.64893 26.5499C9.7843 26.1932 10.18 26.0175 10.5392 26.1519L18.6299 29.2167C18.9892 29.3511 19.1662 29.7439 19.0308 30.1005C18.9267 30.3693 18.6612 30.5398 18.3852 30.5398C18.3071 30.5398 18.2238 30.5243 18.1405 30.4933Z"/>
<path d="M61.2226 61.8238C61.4933 61.555 61.9306 61.555 62.2014 61.8238L70.5472 70.1086C70.8179 70.3774 70.8179 70.8115 70.5472 71.0803C70.4118 71.2146 70.2348 71.2818 70.0578 71.2818C69.8808 71.2818 69.7038 71.2146 69.5684 71.0803L61.2226 62.7954C60.9518 62.5266 60.9518 62.0925 61.2226 61.8238Z"/>
<path d="M74.0567 57.9476L65.966 54.8827C65.6067 54.7484 65.2111 54.9241 65.0757 55.2807C64.9403 55.6373 65.1173 56.0301 65.4766 56.1645L73.5673 59.2345C73.6506 59.2655 73.7339 59.281 73.812 59.281C74.0879 59.281 74.3534 59.1104 74.4576 58.8417C74.5929 58.4851 74.4159 58.0923 74.0567 57.9579V57.9476Z"/>
<path d="M54.6319 65.6432C54.9859 65.5089 55.3868 65.6897 55.5221 66.0412V66.036L58.6147 74.0676C58.7501 74.4191 58.5731 74.817 58.2138 74.9514C58.1357 74.9824 58.0524 74.9979 57.9691 74.9979C57.6932 74.9979 57.4277 74.8325 57.3235 74.5586L54.231 66.527C54.0956 66.1756 54.2726 65.7776 54.6319 65.6432Z"/>
<path d="M63.4458 30.6845C65.1485 31.3821 65.8368 33.1079 65.6324 34.9225C65.0649 40.0547 63.9768 49.7608 56.3703 53.0169C55.3082 55.5029 54.2982 57.2342 53.3714 57.8131C50.9453 59.3326 40.267 63.152 34.3057 63.152C32.6761 63.152 31.4006 62.8626 30.7394 62.17C30.4009 61.8134 30.151 61.3741 29.9948 60.8779C24.2626 63.4207 15.2088 73.3233 15.115 73.4267C14.9745 73.5765 14.787 73.6541 14.5996 73.6541C14.433 73.6541 14.2664 73.5972 14.1362 73.4783C13.8499 73.2199 13.8291 72.7858 14.0842 72.5067C14.4851 72.0622 23.768 61.9064 29.7866 59.467C29.7918 58.5935 30.0053 57.6477 30.4426 56.7019C32.1243 53.0634 37.0963 49.3267 46.0148 49.7246C46.4001 49.7453 46.6917 50.0658 46.676 50.443C46.6552 50.8255 46.3324 51.1098 45.9524 51.0994C37.7159 50.7221 33.1916 54.0505 31.6973 57.2808C30.9684 58.8571 30.9841 60.4438 31.7338 61.2294C33.7851 63.3846 48.8367 59.0225 52.6217 56.6502C53.1996 56.2884 53.8765 55.1824 54.6001 53.6164C53.3975 53.9317 52.0698 54.1177 50.586 54.1177C50.206 54.1177 49.8936 53.8128 49.8936 53.4355C49.8884 53.0582 50.2008 52.7481 50.5808 52.7481C60.8322 52.7223 63.2063 44.0912 64.2423 34.7675C64.3725 33.5891 64.1278 32.7777 63.4926 32.2815C61.7589 30.9274 57.4845 32.0334 55.985 32.5709C55.6258 32.7001 55.2301 32.5141 55.1 32.1575C54.9698 31.8008 55.1572 31.408 55.5165 31.2788C55.9954 31.1083 59.3692 29.9454 62.1077 30.333C62.4409 29.1753 62.7169 28.2605 62.9147 27.6713C64.435 23.1904 72.7131 17.5311 73.0671 17.2933C73.3847 17.0814 73.8168 17.1641 74.0303 17.4742C74.2438 17.7895 74.1657 18.2184 73.8481 18.4303C73.7648 18.482 65.6012 24.0638 64.2267 28.1106C64.0341 28.674 63.7686 29.563 63.4458 30.6845Z"/>
</mask>
<path d="M24.9813 44.1378C24.8667 45.4195 24.7262 46.5669 24.5544 47.2853C24.3617 48.1019 24.7158 48.5567 24.9448 48.7583C25.2312 49.0115 25.6165 49.1356 26.0746 49.1356C26.4287 49.1356 26.8295 49.0581 27.2617 48.903C29.1464 48.226 32.567 45.5333 33.4416 39.7447C33.7225 37.8909 36.6695 37.3424 40.081 36.7074L40.0902 36.7057C44.3542 35.915 49.6595 34.9278 51.9503 30.7156C52.1325 30.3797 52.0075 29.9662 51.6691 29.7853C51.3307 29.6044 50.9142 29.7285 50.732 30.0644C48.7536 33.7029 44.0158 34.5815 39.835 35.3568C35.899 36.0855 32.4993 36.7161 32.0724 39.5431C31.3851 44.0913 28.9381 46.6755 27.0482 47.5127C26.3714 47.8125 25.9913 47.7763 25.8872 47.7401C25.8872 47.7143 25.8872 47.6626 25.9028 47.5954C26.4963 45.0733 26.7514 38.0081 26.7931 36.6489L34.0872 26.9066C42.2933 24.4921 49.5137 19.3895 49.8452 19.1553L49.8469 19.154C49.9094 19.1075 49.9666 19.0558 50.0083 18.9887L59.1455 6.08331C59.3641 5.77321 59.2912 5.34424 58.9789 5.12717C58.6665 4.9101 58.2344 4.98246 58.0157 5.29256L48.9462 18.11C48.0611 18.7251 41.069 23.4748 33.4781 25.661C33.3323 25.7023 33.2073 25.7902 33.1136 25.9091L25.5488 36.008C25.4655 36.1217 25.4186 36.2561 25.4134 36.3956C25.4134 36.4473 25.3249 39.4243 25.1166 42.3599C24.4554 42.8147 22.7217 44.0241 19.3948 46.3757C11.1023 52.2412 6.2683 53.6643 6.01907 53.7377L6.00927 53.7406C5.63962 53.8388 5.42095 54.2161 5.51987 54.583C5.60318 54.8879 5.88432 55.0895 6.18629 55.0895C6.24356 55.0895 6.30604 55.0792 6.36851 55.0637L6.37186 55.0627C6.62006 54.9934 11.5241 53.6224 20.1966 47.5024C22.6749 45.7503 24.1274 44.7322 24.9761 44.143L24.9813 44.1378Z" fill="#F1ECDC"/>
<path d="M28.584 19.3349C28.6881 19.6088 28.9536 19.7742 29.2296 19.7742C29.3129 19.7742 29.3962 19.7587 29.4743 19.7277C29.8335 19.5933 30.0105 19.1954 29.8751 18.8439L26.7878 10.8123C26.6524 10.4609 26.2515 10.28 25.8975 10.4143C25.5382 10.5487 25.3612 10.9467 25.4966 11.2981L28.584 19.3297V19.3349Z" fill="#F1ECDC"/>
<path d="M22.3888 23.7486C22.2118 23.7486 22.0348 23.6814 21.8994 23.5471L13.5536 15.2622C13.2829 14.9934 13.2829 14.5593 13.5536 14.2906C13.8244 14.0218 14.2617 14.0218 14.5324 14.2906L22.8782 22.5754C23.149 22.8442 23.149 23.2783 22.8782 23.5471C22.7429 23.6814 22.5659 23.7486 22.3888 23.7486Z" fill="#F1ECDC"/>
<path d="M18.1405 30.4933L10.0498 27.4285V27.4336C9.69058 27.2993 9.51357 26.9065 9.64893 26.5499C9.7843 26.1932 10.18 26.0175 10.5392 26.1519L18.6299 29.2167C18.9892 29.3511 19.1662 29.7439 19.0308 30.1005C18.9267 30.3693 18.6612 30.5398 18.3852 30.5398C18.3071 30.5398 18.2238 30.5243 18.1405 30.4933Z" fill="#F1ECDC"/>
<path d="M61.2226 61.8238C61.4933 61.555 61.9306 61.555 62.2014 61.8238L70.5472 70.1086C70.8179 70.3774 70.8179 70.8115 70.5472 71.0803C70.4118 71.2146 70.2348 71.2818 70.0578 71.2818C69.8808 71.2818 69.7038 71.2146 69.5684 71.0803L61.2226 62.7954C60.9518 62.5266 60.9518 62.0925 61.2226 61.8238Z" fill="#F1ECDC"/>
<path d="M74.0567 57.9476L65.966 54.8827C65.6067 54.7484 65.2111 54.9241 65.0757 55.2807C64.9403 55.6373 65.1173 56.0301 65.4766 56.1645L73.5673 59.2345C73.6506 59.2655 73.7339 59.281 73.812 59.281C74.0879 59.281 74.3534 59.1104 74.4576 58.8417C74.5929 58.4851 74.4159 58.0923 74.0567 57.9579V57.9476Z" fill="#F1ECDC"/>
<path d="M54.6319 65.6432C54.9859 65.5089 55.3868 65.6897 55.5221 66.0412V66.036L58.6147 74.0676C58.7501 74.4191 58.5731 74.817 58.2138 74.9514C58.1357 74.9824 58.0524 74.9979 57.9691 74.9979C57.6932 74.9979 57.4277 74.8325 57.3235 74.5586L54.231 66.527C54.0956 66.1756 54.2726 65.7776 54.6319 65.6432Z" fill="#F1ECDC"/>
<path d="M63.4458 30.6845C65.1485 31.3821 65.8368 33.1079 65.6324 34.9225C65.0649 40.0547 63.9768 49.7608 56.3703 53.0169C55.3082 55.5029 54.2982 57.2342 53.3714 57.8131C50.9453 59.3326 40.267 63.152 34.3057 63.152C32.6761 63.152 31.4006 62.8626 30.7394 62.17C30.4009 61.8134 30.151 61.3741 29.9948 60.8779C24.2626 63.4207 15.2088 73.3233 15.115 73.4267C14.9745 73.5765 14.787 73.6541 14.5996 73.6541C14.433 73.6541 14.2664 73.5972 14.1362 73.4783C13.8499 73.2199 13.8291 72.7858 14.0842 72.5067C14.4851 72.0622 23.768 61.9064 29.7866 59.467C29.7918 58.5935 30.0053 57.6477 30.4426 56.7019C32.1243 53.0634 37.0963 49.3267 46.0148 49.7246C46.4001 49.7453 46.6917 50.0658 46.676 50.443C46.6552 50.8255 46.3324 51.1098 45.9524 51.0994C37.7159 50.7221 33.1916 54.0505 31.6973 57.2808C30.9684 58.8571 30.9841 60.4438 31.7338 61.2294C33.7851 63.3846 48.8367 59.0225 52.6217 56.6502C53.1996 56.2884 53.8765 55.1824 54.6001 53.6164C53.3975 53.9317 52.0698 54.1177 50.586 54.1177C50.206 54.1177 49.8936 53.8128 49.8936 53.4355C49.8884 53.0582 50.2008 52.7481 50.5808 52.7481C60.8322 52.7223 63.2063 44.0912 64.2423 34.7675C64.3725 33.5891 64.1278 32.7777 63.4926 32.2815C61.7589 30.9274 57.4845 32.0334 55.985 32.5709C55.6258 32.7001 55.2301 32.5141 55.1 32.1575C54.9698 31.8008 55.1572 31.408 55.5165 31.2788C55.9954 31.1083 59.3692 29.9454 62.1077 30.333C62.4409 29.1753 62.7169 28.2605 62.9147 27.6713C64.435 23.1904 72.7131 17.5311 73.0671 17.2933C73.3847 17.0814 73.8168 17.1641 74.0303 17.4742C74.2438 17.7895 74.1657 18.2184 73.8481 18.4303C73.7648 18.482 65.6012 24.0638 64.2267 28.1106C64.0341 28.674 63.7686 29.563 63.4458 30.6845Z" fill="#F1ECDC"/>
<path d="M24.9813 44.1378C24.8667 45.4195 24.7262 46.5669 24.5544 47.2853C24.3617 48.1019 24.7158 48.5567 24.9448 48.7583C25.2312 49.0115 25.6165 49.1356 26.0746 49.1356C26.4287 49.1356 26.8295 49.0581 27.2617 48.903C29.1464 48.226 32.567 45.5333 33.4416 39.7447C33.7225 37.8909 36.6695 37.3424 40.081 36.7074L40.0902 36.7057C44.3542 35.915 49.6595 34.9278 51.9503 30.7156C52.1325 30.3797 52.0075 29.9662 51.6691 29.7853C51.3307 29.6044 50.9142 29.7285 50.732 30.0644C48.7536 33.7029 44.0158 34.5815 39.835 35.3568C35.899 36.0855 32.4993 36.7161 32.0724 39.5431C31.3851 44.0913 28.9381 46.6755 27.0482 47.5127C26.3714 47.8125 25.9913 47.7763 25.8872 47.7401C25.8872 47.7143 25.8872 47.6626 25.9028 47.5954C26.4963 45.0733 26.7514 38.0081 26.7931 36.6489L34.0872 26.9066C42.2933 24.4921 49.5137 19.3895 49.8452 19.1553L49.8469 19.154C49.9094 19.1075 49.9666 19.0558 50.0083 18.9887L59.1455 6.08331C59.3641 5.77321 59.2912 5.34424 58.9789 5.12717C58.6665 4.9101 58.2344 4.98246 58.0157 5.29256L48.9462 18.11C48.0611 18.7251 41.069 23.4748 33.4781 25.661C33.3323 25.7023 33.2073 25.7902 33.1136 25.9091L25.5488 36.008C25.4655 36.1217 25.4186 36.2561 25.4134 36.3956C25.4134 36.4473 25.3249 39.4243 25.1166 42.3599C24.4554 42.8147 22.7217 44.0241 19.3948 46.3757C11.1023 52.2412 6.2683 53.6643 6.01907 53.7377L6.00927 53.7406C5.63962 53.8388 5.42095 54.2161 5.51987 54.583C5.60318 54.8879 5.88432 55.0895 6.18629 55.0895C6.24356 55.0895 6.30604 55.0792 6.36851 55.0637L6.37186 55.0627C6.62006 54.9934 11.5241 53.6224 20.1966 47.5024C22.6749 45.7503 24.1274 44.7322 24.9761 44.143L24.9813 44.1378Z" stroke="#1F473E" stroke-width="0.2" mask="url(#path-1-outside-1_2204_3819)"/>
<path d="M28.584 19.3349C28.6881 19.6088 28.9536 19.7742 29.2296 19.7742C29.3129 19.7742 29.3962 19.7587 29.4743 19.7277C29.8335 19.5933 30.0105 19.1954 29.8751 18.8439L26.7878 10.8123C26.6524 10.4609 26.2515 10.28 25.8975 10.4143C25.5382 10.5487 25.3612 10.9467 25.4966 11.2981L28.584 19.3297V19.3349Z" stroke="#1F473E" stroke-width="0.2" mask="url(#path-1-outside-1_2204_3819)"/>
<path d="M22.3888 23.7486C22.2118 23.7486 22.0348 23.6814 21.8994 23.5471L13.5536 15.2622C13.2829 14.9934 13.2829 14.5593 13.5536 14.2906C13.8244 14.0218 14.2617 14.0218 14.5324 14.2906L22.8782 22.5754C23.149 22.8442 23.149 23.2783 22.8782 23.5471C22.7429 23.6814 22.5659 23.7486 22.3888 23.7486Z" stroke="#1F473E" stroke-width="0.2" mask="url(#path-1-outside-1_2204_3819)"/>
<path d="M18.1405 30.4933L10.0498 27.4285V27.4336C9.69058 27.2993 9.51357 26.9065 9.64893 26.5499C9.7843 26.1932 10.18 26.0175 10.5392 26.1519L18.6299 29.2167C18.9892 29.3511 19.1662 29.7439 19.0308 30.1005C18.9267 30.3693 18.6612 30.5398 18.3852 30.5398C18.3071 30.5398 18.2238 30.5243 18.1405 30.4933Z" stroke="#1F473E" stroke-width="0.2" mask="url(#path-1-outside-1_2204_3819)"/>
<path d="M61.2226 61.8238C61.4933 61.555 61.9306 61.555 62.2014 61.8238L70.5472 70.1086C70.8179 70.3774 70.8179 70.8115 70.5472 71.0803C70.4118 71.2146 70.2348 71.2818 70.0578 71.2818C69.8808 71.2818 69.7038 71.2146 69.5684 71.0803L61.2226 62.7954C60.9518 62.5266 60.9518 62.0925 61.2226 61.8238Z" stroke="#1F473E" stroke-width="0.2" mask="url(#path-1-outside-1_2204_3819)"/>
<path d="M74.0567 57.9476L65.966 54.8827C65.6067 54.7484 65.2111 54.9241 65.0757 55.2807C64.9403 55.6373 65.1173 56.0301 65.4766 56.1645L73.5673 59.2345C73.6506 59.2655 73.7339 59.281 73.812 59.281C74.0879 59.281 74.3534 59.1104 74.4576 58.8417C74.5929 58.4851 74.4159 58.0923 74.0567 57.9579V57.9476Z" stroke="#1F473E" stroke-width="0.2" mask="url(#path-1-outside-1_2204_3819)"/>
<path d="M54.6319 65.6432C54.9859 65.5089 55.3868 65.6897 55.5221 66.0412V66.036L58.6147 74.0676C58.7501 74.4191 58.5731 74.817 58.2138 74.9514C58.1357 74.9824 58.0524 74.9979 57.9691 74.9979C57.6932 74.9979 57.4277 74.8325 57.3235 74.5586L54.231 66.527C54.0956 66.1756 54.2726 65.7776 54.6319 65.6432Z" stroke="#1F473E" stroke-width="0.2" mask="url(#path-1-outside-1_2204_3819)"/>
<path d="M63.4458 30.6845C65.1485 31.3821 65.8368 33.1079 65.6324 34.9225C65.0649 40.0547 63.9768 49.7608 56.3703 53.0169C55.3082 55.5029 54.2982 57.2342 53.3714 57.8131C50.9453 59.3326 40.267 63.152 34.3057 63.152C32.6761 63.152 31.4006 62.8626 30.7394 62.17C30.4009 61.8134 30.151 61.3741 29.9948 60.8779C24.2626 63.4207 15.2088 73.3233 15.115 73.4267C14.9745 73.5765 14.787 73.6541 14.5996 73.6541C14.433 73.6541 14.2664 73.5972 14.1362 73.4783C13.8499 73.2199 13.8291 72.7858 14.0842 72.5067C14.4851 72.0622 23.768 61.9064 29.7866 59.467C29.7918 58.5935 30.0053 57.6477 30.4426 56.7019C32.1243 53.0634 37.0963 49.3267 46.0148 49.7246C46.4001 49.7453 46.6917 50.0658 46.676 50.443C46.6552 50.8255 46.3324 51.1098 45.9524 51.0994C37.7159 50.7221 33.1916 54.0505 31.6973 57.2808C30.9684 58.8571 30.9841 60.4438 31.7338 61.2294C33.7851 63.3846 48.8367 59.0225 52.6217 56.6502C53.1996 56.2884 53.8765 55.1824 54.6001 53.6164C53.3975 53.9317 52.0698 54.1177 50.586 54.1177C50.206 54.1177 49.8936 53.8128 49.8936 53.4355C49.8884 53.0582 50.2008 52.7481 50.5808 52.7481C60.8322 52.7223 63.2063 44.0912 64.2423 34.7675C64.3725 33.5891 64.1278 32.7777 63.4926 32.2815C61.7589 30.9274 57.4845 32.0334 55.985 32.5709C55.6258 32.7001 55.2301 32.5141 55.1 32.1575C54.9698 31.8008 55.1572 31.408 55.5165 31.2788C55.9954 31.1083 59.3692 29.9454 62.1077 30.333C62.4409 29.1753 62.7169 28.2605 62.9147 27.6713C64.435 23.1904 72.7131 17.5311 73.0671 17.2933C73.3847 17.0814 73.8168 17.1641 74.0303 17.4742C74.2438 17.7895 74.1657 18.2184 73.8481 18.4303C73.7648 18.482 65.6012 24.0638 64.2267 28.1106C64.0341 28.674 63.7686 29.563 63.4458 30.6845Z" stroke="#1F473E" stroke-width="0.2" mask="url(#path-1-outside-1_2204_3819)"/>
</svg>
