<svg width="80" height="80" viewBox="0 0 80 80" fill="none" xmlns="http://www.w3.org/2000/svg">
<path fill-rule="evenodd" clip-rule="evenodd" d="M20.6539 29.0221C20.6539 18.3549 29.332 9.67686 39.9992 9.67686C50.6664 9.67686 59.3445 18.3549 59.3528 29.0221C59.3528 33.7469 57.568 38.3674 54.3236 42.033C52.1718 44.4642 49.7198 48.1089 49.8991 54.7644V64.2432C49.8991 65.9154 48.5396 67.2748 46.8674 67.2748H44.1151C43.573 69.0722 41.9216 70.3232 39.9992 70.3232C38.0768 70.3232 36.4296 69.0722 35.8874 67.2748H33.1393C31.4671 67.2748 30.1076 65.9154 30.1076 64.2432V54.7644C30.2828 48.1089 27.8349 44.4642 25.6831 42.033C22.4387 38.3674 20.6539 33.7469 20.6539 29.0221ZM31.4379 60.0313H48.5647V55.4483H31.4379V60.0313ZM46.8632 65.9446C47.8015 65.9446 48.5647 65.1814 48.5647 64.2432H48.5605V61.3616H31.4337V64.2432C31.4337 65.1814 32.1969 65.9446 33.1351 65.9446H36.4129C36.7381 65.9446 37.0134 66.1823 37.0676 66.5034C37.3053 67.9463 38.5355 68.993 39.9992 68.993C41.4629 68.993 42.6931 67.9463 42.9308 66.5034C42.9808 66.1823 43.2602 65.9446 43.5855 65.9446H46.8632ZM48.5522 54.1181C48.5438 47.4291 51.0793 43.6844 53.3186 41.1531H53.3145C56.342 37.7294 58.01 33.4216 58.01 29.0221C58.01 19.0889 49.9283 11.0071 39.995 11.0071C30.0617 11.0071 21.98 19.0889 21.98 29.0221C21.98 33.4258 23.6481 37.7336 26.6756 41.1531C28.915 43.6802 31.4504 47.4291 31.4421 54.1181H48.5522ZM13.1689 12.7544L18.3649 15.7527V15.7486C18.6818 15.9321 18.7902 16.3407 18.6067 16.6577C18.4858 16.8703 18.2606 16.9913 18.0313 16.9913C17.9187 16.9913 17.8019 16.9663 17.6977 16.9037L12.5017 13.9054C12.1847 13.7219 12.0763 13.3132 12.2598 12.9963C12.4433 12.6794 12.8519 12.5709 13.1689 12.7544ZM14.6285 28.355C14.9996 28.355 15.2957 28.6552 15.2957 29.0222H15.2999C15.2999 29.3933 14.9996 29.6894 14.6326 29.6894H5.66683C5.29569 29.6894 4.99961 29.3933 4.99961 29.0222C4.99961 28.651 5.29986 28.355 5.66683 28.355H14.6285ZM17.6977 41.1406L12.5017 44.139C12.1847 44.3224 12.0763 44.7311 12.2598 45.048C12.3807 45.2607 12.6059 45.3817 12.8353 45.3817C12.9479 45.3817 13.0605 45.3525 13.1689 45.2941L18.3649 42.2958C18.6818 42.1123 18.7902 41.7036 18.6067 41.3867C18.4233 41.0697 18.0146 40.9613 17.6977 41.1448V41.1406ZM65.367 28.3591H74.3328C74.704 28.3591 75.0001 28.6552 75.0001 29.0263C75.0001 29.3975 74.6998 29.6936 74.3328 29.6936H65.367C64.9959 29.6936 64.6998 29.3975 64.6998 29.0263C64.6998 28.6552 65.0001 28.3591 65.367 28.3591ZM61.9681 16.9956C62.0807 16.9956 62.1933 16.9664 62.3017 16.908L67.4977 13.9096C67.8146 13.7262 67.923 13.3175 67.7396 13.0006C67.5561 12.6836 67.1474 12.5752 66.8305 12.7587L61.6345 15.757C61.3175 15.9405 61.2091 16.3492 61.3926 16.6661C61.5177 16.8788 61.7387 16.9997 61.9681 16.9997V16.9956ZM62.2978 41.1406L67.4938 44.139V44.1348C67.8107 44.3183 67.9191 44.727 67.7357 45.0439C67.6147 45.2566 67.3895 45.3775 67.1602 45.3775C67.0476 45.3775 66.9308 45.3525 66.8266 45.2899L61.6306 42.2916C61.3136 42.1081 61.2052 41.6994 61.3887 41.3825C61.5722 41.0656 61.9809 40.9572 62.2978 41.1406ZM39.9994 17.5293C33.6607 17.5293 28.5064 22.6878 28.5064 29.0222C28.5064 29.3892 28.8025 29.6894 29.1737 29.6894C29.5448 29.6894 29.8409 29.3933 29.8409 29.0222C29.8409 23.4175 34.3989 18.8596 40.0035 18.8596C40.3705 18.8596 40.6666 18.5635 40.6666 18.1923C40.6666 17.8212 40.3705 17.5251 40.0035 17.5251L39.9994 17.5293Z" fill="#F1ECDC"/>
<path fill-rule="evenodd" clip-rule="evenodd" d="M50.0491 54.7604L50.0492 54.7644L50.0491 54.7728V64.2432C50.0491 65.9982 48.6225 67.4249 46.8674 67.4249H44.2251C43.6318 69.2278 41.95 70.4732 39.9992 70.4732C38.0483 70.4732 36.3706 69.2276 35.7775 67.4249H33.1393C31.3842 67.4249 29.9576 65.9982 29.9576 64.2432V54.7605C30.1315 48.1526 27.7047 44.5434 25.5708 42.1324C22.3031 38.4405 20.5039 33.7849 20.5039 29.0221C20.5039 18.2721 29.2491 9.52686 39.9992 9.52686C50.7493 9.52686 59.4944 18.2721 59.5028 29.022C59.5028 33.7848 57.7037 38.4405 54.436 42.1324C52.302 44.5435 49.871 48.1527 50.0491 54.7604ZM35.8874 67.2748C36.4296 69.0722 38.0768 70.3232 39.9992 70.3232C41.9216 70.3232 43.573 69.0722 44.1151 67.2748H46.8674C48.5396 67.2748 49.8991 65.9154 49.8991 64.2432V54.7644C49.7198 48.1089 52.1718 44.4642 54.3236 42.033C57.568 38.3674 59.3528 33.7469 59.3528 29.0221C59.3445 18.3549 50.6664 9.67686 39.9992 9.67686C29.332 9.67686 20.6539 18.3549 20.6539 29.0221C20.6539 33.7469 22.4387 38.3674 25.6831 42.033C27.8349 44.4642 30.2828 48.1089 30.1076 54.7644V64.2432C30.1076 65.9154 31.4671 67.2748 33.1393 67.2748H35.8874ZM48.4105 64.3575V61.5116H31.5837V64.2432C31.5837 65.0986 32.2797 65.7946 33.1351 65.7946H36.4129C36.813 65.7946 37.1494 66.0868 37.2155 66.4784C37.4413 67.849 38.6091 68.843 39.9992 68.843C41.3891 68.843 42.5567 67.8498 42.7827 66.4796C42.8445 66.0853 43.1871 65.7946 43.5855 65.7946H46.8632C47.6802 65.7946 48.3518 65.1598 48.4105 64.3575ZM48.5581 64.3932C48.4819 65.2614 47.751 65.9446 46.8632 65.9446H43.5855C43.2602 65.9446 42.9808 66.1823 42.9308 66.5034C42.6931 67.9463 41.4629 68.993 39.9992 68.993C38.5355 68.993 37.3053 67.9463 37.0676 66.5034C37.0134 66.1823 36.7381 65.9446 36.4129 65.9446H33.1351C32.1969 65.9446 31.4337 65.1814 31.4337 64.2432V61.3616H48.5605V64.2432H48.5647C48.5647 64.2834 48.5633 64.3234 48.5605 64.3629C48.5598 64.373 48.559 64.3831 48.5581 64.3932ZM53.4457 41.0031C56.3902 37.604 58.01 33.3576 58.01 29.0221C58.01 19.0889 49.9283 11.0071 39.995 11.0071C30.0617 11.0071 21.98 19.0889 21.98 29.0221C21.98 33.4258 23.6481 37.7336 26.6756 41.1531C28.9076 43.6719 31.4338 47.4045 31.4421 54.0523C31.4421 54.0742 31.4421 54.0961 31.4421 54.1181H48.5522C48.5521 54.0961 48.5521 54.0742 48.5522 54.0523C48.5603 47.5351 50.9884 43.8236 53.1869 41.3031C53.2295 41.2542 53.272 41.2058 53.3145 41.1578C53.3152 41.1569 53.316 41.156 53.3168 41.1552C53.3174 41.1545 53.318 41.1538 53.3186 41.1531H53.3145C53.3151 41.1524 53.3157 41.1517 53.3163 41.151C53.3171 41.1501 53.3178 41.1493 53.3186 41.1484C53.3613 41.1001 53.4036 41.0517 53.4457 41.0031ZM52.9882 41.3031H52.9816L53.2021 41.0537C56.2064 37.6563 57.86 33.3835 57.86 29.0221C57.86 19.1717 49.8455 11.1571 39.995 11.1571C30.1446 11.1571 22.13 19.1717 22.13 29.0221C22.13 33.3877 23.7837 37.6604 26.7879 41.0537C29.0272 43.5807 31.5624 47.3263 31.5918 53.9681H48.4024C48.4309 47.5411 50.8057 43.8298 52.9882 41.3031ZM12.5017 13.9054C12.1847 13.7219 12.0763 13.3132 12.2598 12.9963C12.4433 12.6794 12.8519 12.5709 13.1689 12.7544L18.3649 15.7527V15.7486C18.3655 15.7489 18.3661 15.7493 18.3667 15.7496C18.3685 15.7507 18.3702 15.7517 18.372 15.7528C18.4259 15.7849 18.4737 15.8236 18.5149 15.8673C18.7113 16.0758 18.7573 16.3976 18.6067 16.6577C18.4858 16.8703 18.2606 16.9913 18.0313 16.9913C17.9187 16.9913 17.8019 16.9663 17.6977 16.9037L12.5017 13.9054ZM17.6216 17.033L12.4267 14.0353C12.0379 13.8102 11.9051 13.3096 12.13 12.9211C12.355 12.5324 12.8555 12.3998 13.2439 12.6245C13.2438 12.6245 13.2439 12.6245 13.2439 12.6245L18.2149 15.493V15.4884L18.44 15.6188C18.8287 15.8438 18.9613 16.344 18.7369 16.7323C18.588 16.9937 18.3119 17.1413 18.0313 17.1413C17.8974 17.1413 17.7532 17.1116 17.6216 17.033ZM15.283 29.1722C15.215 29.47 14.9485 29.6894 14.6326 29.6894H5.66683C5.29569 29.6894 4.99961 29.3933 4.99961 29.0222C4.99961 28.651 5.29986 28.355 5.66683 28.355H14.6285C14.9996 28.355 15.2957 28.6552 15.2957 29.0222H15.2999C15.2999 29.0477 15.2984 29.0728 15.2957 29.0975C15.2929 29.1229 15.2886 29.1478 15.283 29.1722ZM15.432 28.8722H15.4499V29.0222C15.4499 29.4768 15.0818 29.8394 14.6326 29.8394H5.66683C5.21285 29.8394 4.84961 29.4762 4.84961 29.0222C4.84961 28.5676 5.21763 28.205 5.66683 28.205H14.6285C15.0313 28.205 15.3618 28.4939 15.432 28.8722ZM12.4267 44.009L17.8477 40.8809V40.9261C18.1871 40.8481 18.5532 40.9948 18.7366 41.3115C18.9614 41.6999 18.8288 42.2005 18.44 42.4256L13.24 45.4262C13.1114 45.4955 12.9745 45.5317 12.8353 45.5317C12.5544 45.5317 12.2782 45.3839 12.1294 45.1222C11.9053 44.7339 12.0382 44.234 12.4267 44.009ZM12.2598 45.048C12.3807 45.2607 12.6059 45.3817 12.8353 45.3817C12.9479 45.3817 13.0605 45.3525 13.1689 45.2941L18.3649 42.2958C18.6818 42.1123 18.7902 41.7036 18.6067 41.3867C18.4512 41.118 18.1338 40.9992 17.8477 41.081C17.7989 41.095 17.751 41.1147 17.705 41.1406C17.7031 41.1417 17.7013 41.1427 17.6995 41.1438C17.6989 41.1441 17.6983 41.1444 17.6977 41.1448V41.1406L12.5017 44.139C12.1847 44.3224 12.0763 44.7311 12.2598 45.048ZM62.3728 17.0401C62.2908 17.0842 62.2053 17.115 62.1181 17.1315V17.1497H61.9681C61.6858 17.1497 61.4155 17.0008 61.2633 16.7422L61.2628 16.7413C61.0379 16.3528 61.1705 15.8523 61.5593 15.6272L66.7553 12.6289M62.3728 17.0401L62.3767 17.0379L62.3728 17.0401ZM62.3017 16.908C62.1933 16.9664 62.0807 16.9956 61.9681 16.9956V16.9997C61.9434 16.9997 61.9188 16.9983 61.8944 16.9956C61.8687 16.9926 61.8432 16.9882 61.8181 16.9823C61.6457 16.9417 61.49 16.8318 61.3926 16.6661C61.2091 16.3492 61.3175 15.9405 61.6345 15.757L66.8305 12.7587C67.1474 12.5752 67.5561 12.6836 67.7396 13.0006C67.923 13.3175 67.8146 13.7262 67.4977 13.9096L62.3017 16.908ZM62.3767 17.0379L67.5727 14.0396L62.3767 17.0379ZM67.4938 44.139V44.1348C67.4944 44.1352 67.495 44.1355 67.4956 44.1359C67.4974 44.1369 67.4991 44.1379 67.5009 44.139C67.5548 44.1711 67.6026 44.2098 67.6438 44.2535C67.8402 44.462 67.8862 44.7838 67.7357 45.0439C67.6147 45.2566 67.3895 45.3775 67.1602 45.3775C67.0476 45.3775 66.9308 45.3525 66.8266 45.2899L61.6306 42.2916C61.3136 42.1081 61.2052 41.6994 61.3887 41.3825C61.5722 41.0656 61.9809 40.9572 62.2978 41.1406L67.4938 44.139ZM67.3438 43.8792V43.8746L67.5689 44.005C67.9576 44.23 68.0902 44.7302 67.8658 45.1186C67.7169 45.3799 67.4408 45.5275 67.1602 45.5275C67.0262 45.5275 66.8821 45.4979 66.7505 45.4192C66.7501 45.419 66.7498 45.4188 66.7494 45.4186L61.5556 42.4215C61.1668 42.1964 61.034 41.6958 61.2589 41.3074C61.484 40.9186 61.9844 40.786 62.3728 41.0107M62.3728 41.0107L67.3438 43.8792L62.3728 41.0107ZM40.0035 17.5251C40.3705 17.5251 40.6666 17.8212 40.6666 18.1923C40.6666 18.5635 40.3705 18.8596 40.0035 18.8596C34.3989 18.8596 29.8409 23.4175 29.8409 29.0222C29.8409 29.3933 29.5448 29.6894 29.1737 29.6894C28.8025 29.6894 28.5064 29.3892 28.5064 29.0222C28.5064 22.6878 33.6607 17.5293 39.9994 17.5293L40.0035 17.5251ZM39.9371 17.3795C33.5441 17.4131 28.3564 22.6257 28.3564 29.0222C28.3564 29.4714 28.7191 29.8394 29.1737 29.8394C29.6277 29.8394 29.9909 29.4762 29.9909 29.0222C29.9909 23.5004 34.4817 19.0096 40.0035 19.0096C40.454 19.0096 40.8166 18.6457 40.8166 18.1923C40.8166 17.739 40.454 17.3751 40.0035 17.3751H39.9414L39.9371 17.3795ZM31.5879 59.8813H48.4147V55.5983H31.5879V59.8813ZM65.367 28.2091H74.3328C74.7868 28.2091 75.1501 28.5723 75.1501 29.0263C75.1501 29.4809 74.782 29.8436 74.3328 29.8436H65.367C64.913 29.8436 64.5498 29.4803 64.5498 29.0263C64.5498 28.5717 64.9178 28.2091 65.367 28.2091ZM67.5727 14.0396C67.9615 13.8145 68.0943 13.3138 67.8694 12.9254L67.5727 14.0396ZM67.8694 12.9254C67.6443 12.5366 67.1437 12.4041 66.7553 12.6289L67.8694 12.9254ZM31.4379 60.0313V55.4483H48.5647V60.0313H31.4379ZM74.3328 28.3591H65.367C65.0001 28.3591 64.6998 28.6552 64.6998 29.0263C64.6998 29.3975 64.9959 29.6936 65.367 29.6936H74.3328C74.6998 29.6936 75.0001 29.3975 75.0001 29.0263C75.0001 28.6552 74.704 28.3591 74.3328 28.3591Z" fill="#F1ECDC"/>
</svg>
