<svg width="80" height="80" viewBox="0 0 80 80" fill="none" xmlns="http://www.w3.org/2000/svg">
<path d="M40.0029 7.90039C48.3153 7.90041 55.0837 14.6807 55.084 23.0205C55.084 26.8419 53.6574 30.3317 51.3193 32.999L63.2725 37.7578C67.5496 39.4606 69.1905 42.4194 70.2256 45.0723L70.2783 45.209H70.2695C70.8219 46.6817 71.933 50.4491 72.8154 54.3594C73.2711 56.3787 73.667 58.4385 73.8945 60.2422C74.1216 62.0419 74.1829 63.599 73.9619 64.6064C73.2233 67.9828 71.5965 70.4365 69.3535 71.4932V71.4922C68.5001 71.8994 67.5709 72.0996 66.585 72.0996C65.0892 72.0995 63.4533 71.6414 61.6904 70.7256L52.1475 65.7764L40.2959 71.4971C40.2032 71.5435 40.1016 71.5723 39.9971 71.5723C39.8973 71.5723 39.7955 71.5519 39.6992 71.5039L27.8516 65.7764L18.3096 70.7256C16.5467 71.6414 14.9108 72.0995 13.415 72.0996C12.4285 72.0996 11.5047 71.894 10.6465 71.4932C8.40921 70.4423 6.77667 67.9827 6.03809 64.6064C5.81714 63.599 5.87841 62.0424 6.10547 60.2432C6.33304 58.44 6.72887 56.3803 7.18457 54.3613C8.09564 50.3249 9.24821 46.4395 9.78027 45.0723C10.8153 42.4194 12.4562 39.4606 16.7334 37.7578L28.6855 32.999C26.3477 30.3317 24.9219 26.8417 24.9219 23.0205C24.9221 14.6865 31.6905 7.90039 40.0029 7.90039ZM17.2471 39.0518C14.2385 40.247 12.3934 42.1969 11.0713 45.5801C10.4693 47.1224 9.35847 50.939 8.49316 54.8096C8.06071 56.744 7.69032 58.6895 7.47559 60.3691C7.26032 62.0531 7.20372 63.4569 7.39062 64.3145L7.52051 64.8623C8.19071 67.4603 9.43896 69.3134 11.0654 70.1602L11.2354 70.2441C12.9603 71.0607 15.1243 70.8195 17.6738 69.498L31.7227 62.2109C33.165 61.4625 33.8331 59.7449 33.2773 58.2139C32.6652 56.5368 30.8076 55.6651 29.1299 56.2783L17.4014 60.5596L17.4004 60.5605C17.0417 60.6893 16.6493 60.5053 16.5146 60.1475C16.379 59.787 16.5693 59.3867 16.9277 59.2578L24.7734 56.3896L23.0596 42.9756L23.0537 42.8809C23.0546 42.6626 23.1596 42.4546 23.3369 42.3242C23.54 42.1749 23.811 42.1483 24.041 42.2568L40.0029 49.8193L55.9648 42.2568C56.1949 42.1483 56.4659 42.1749 56.6689 42.3242C56.8717 42.4733 56.9802 42.7243 56.9463 42.9756L55.2314 56.3896L63.0781 59.2578L63.2041 59.3184C63.4784 59.4865 63.6031 59.8323 63.4912 60.1455C63.3623 60.5061 62.9629 60.6888 62.6055 60.5605L62.6045 60.5596L50.876 56.2783C49.1983 55.6651 47.3398 56.5306 46.7275 58.2129L46.7285 58.2139C46.1727 59.7449 46.8408 61.4625 48.2832 62.2109L62.332 69.498C64.8815 70.8195 67.0397 71.0608 68.7705 70.2441C70.5882 69.3867 71.9647 67.293 72.6152 64.3145L72.6328 64.2354H72.6426C72.8097 63.372 72.7507 62.0026 72.542 60.3691C72.3273 58.6889 71.9569 56.7417 71.5244 54.8066C70.6591 50.9352 69.5472 47.1192 68.9453 45.5801C67.6232 42.1969 65.7785 40.2528 62.7695 39.0518L50.2832 34.0791C47.5858 36.5994 43.9819 38.1474 40.0088 38.1475C36.0349 38.1475 32.4243 36.5993 29.7266 34.0781L17.2471 39.0518ZM26.0996 55.9023L28.6445 54.9707L28.8701 54.8945C31.2046 54.1771 33.7289 55.4128 34.5713 57.7393L34.6406 57.9453C35.3084 60.0793 34.3473 62.4102 32.3535 63.4443L29.3877 64.9814L39.3008 69.7725V51.0254L24.582 44.0518L26.0996 55.9023ZM40.6875 51.0254V69.7725L50.5996 64.9824L47.6357 63.4443C45.5774 62.3768 44.6249 59.9279 45.417 57.7402L45.418 57.7393C46.2934 55.3381 48.9484 54.099 51.3438 54.9707L53.8877 55.9014L55.4053 44.0518L40.6875 51.0254ZM39.9971 9.28906C32.4437 9.28908 26.2971 15.4521 26.2969 23.0264C26.2969 30.6008 32.4435 36.7637 39.9971 36.7637C47.5506 36.7637 53.6973 30.6008 53.6973 23.0264C53.6971 15.4521 47.5505 9.28906 39.9971 9.28906Z" fill="#F1ECDC" stroke="#1F473E" stroke-width="0.2"/>
</svg>
