<svg width="80" height="80" viewBox="0 0 80 80" fill="none" xmlns="http://www.w3.org/2000/svg">
<path fill-rule="evenodd" clip-rule="evenodd" d="M19.0549 18.8795C15.2222 18.8795 12.1025 15.7645 12.1025 11.9375C12.1025 8.11063 15.2222 5.00012 19.0549 5.00012C22.8875 5.00012 26.0072 8.11516 26.0072 11.9421C26.0072 15.769 22.8875 18.884 19.0549 18.884V18.8795ZM19.0549 6.26518C15.9215 6.26518 13.3695 8.80891 13.3695 11.9421C13.3695 15.0753 15.9215 17.619 19.0549 17.619C22.1882 17.619 24.7402 15.0707 24.7402 11.9421C24.7402 8.81344 22.1927 6.26518 19.0549 6.26518ZM11.9478 75.0001C8.11515 75.0001 5 71.8851 5 68.0582C5 64.2313 8.11969 61.1162 11.9478 61.1162C15.7759 61.1162 18.9001 64.2313 18.9001 68.0582C18.9001 71.8851 15.7804 75.0001 11.9478 75.0001ZM11.9478 62.3858C8.81447 62.3858 6.26241 64.9341 6.26241 68.0627C6.26241 71.1914 8.80993 73.7396 11.9478 73.7396C15.0856 73.7396 17.6332 71.1914 17.6332 68.0627C17.6332 64.9341 15.0811 62.3858 11.9478 62.3858ZM55.8555 40.0501C55.8555 45.3234 60.1513 49.6083 65.428 49.6083C70.7092 49.6083 75.0005 45.3234 75.0005 40.0501C75.0005 34.7767 70.7092 30.4918 65.428 30.4918C60.1467 30.4918 55.8555 34.7767 55.8555 40.0501ZM57.1224 40.0546C57.1224 35.4795 60.8506 31.7614 65.428 31.7614C70.0099 31.7614 73.7335 35.4795 73.7335 40.0546C73.7335 44.6297 70.0099 48.3478 65.428 48.3478C60.8461 48.3478 57.1224 44.6297 57.1224 40.0546ZM40.77 63.5148H29.7035C29.3538 63.5148 29.0723 63.2337 29.0723 62.8845V51.83C29.0723 51.4808 29.3538 51.1997 29.7035 51.1997H40.77C41.1196 51.1997 41.4012 51.4808 41.4012 51.83V62.8845C41.4012 63.2337 41.1196 63.5148 40.77 63.5148ZM30.3347 62.2497H40.1388V52.4602H30.3347V62.2497ZM5.6312 39.5286H16.7022C17.0519 39.5286 17.3334 39.2474 17.3334 38.8983V27.8438C17.3334 27.4946 17.0519 27.2135 16.7022 27.2135H5.6312C5.28154 27.2135 5 27.4946 5 27.8438V38.8983C5 39.2474 5.28154 39.5286 5.6312 39.5286ZM16.071 38.2635H6.26695V28.474H16.071V38.2635ZM67.562 17.3152H56.4955C56.1458 17.3152 55.8643 17.0341 55.8643 16.6849V5.63039C55.8643 5.28125 56.1458 5.00012 56.4955 5.00012H67.562C67.9116 5.00012 68.1932 5.28125 68.1932 5.63039V16.6849C68.1932 17.0341 67.9116 17.3152 67.562 17.3152ZM57.1267 16.0547H66.9308V6.26518H57.1267V16.0547ZM48.9613 75.0001H60.0323C60.382 75.0001 60.6635 74.719 60.6635 74.3699V63.3153C60.6635 62.9662 60.382 62.6851 60.0323 62.6851H48.9613C48.6116 62.6851 48.3301 62.9662 48.3301 63.3153V74.3699C48.3301 74.719 48.6116 75.0001 48.9613 75.0001ZM59.4011 73.7351H49.597V63.9456H59.4011V73.7351ZM14.3391 59.3706C14.2809 59.3703 14.2271 59.3613 14.1688 59.3479C13.8327 59.2527 13.6375 58.9035 13.7283 58.568L13.7301 58.5619C13.7594 58.4623 14.0746 57.3888 14.918 55.7794C15.0815 55.4711 15.463 55.3487 15.7718 55.5119C16.0806 55.6751 16.2032 56.056 16.0397 56.3643C15.2947 57.7886 14.9917 58.7599 14.9502 58.8926C14.9472 58.9022 14.9453 58.9081 14.9453 58.9081C14.8683 59.1839 14.6152 59.3695 14.3391 59.3706ZM17.8334 53.0679C17.6972 53.0679 17.5609 53.0271 17.4474 52.9364C17.1704 52.7233 17.1204 52.3243 17.3339 52.0477C17.9288 51.2814 18.5781 50.5242 19.2638 49.8078C19.5045 49.5539 19.9041 49.5448 20.1584 49.7851C20.4127 50.0254 20.4218 50.4244 20.1811 50.6784C19.5272 51.363 18.9051 52.084 18.3374 52.8185C18.2148 52.9818 18.0241 53.0634 17.8379 53.0634L17.8334 53.0679ZM22.9375 47.9714C22.7513 47.9714 22.5651 47.8898 22.438 47.7266C22.2246 47.45 22.27 47.0555 22.547 46.8378C23.3099 46.2439 24.1182 45.668 24.9492 45.133C25.2444 44.9425 25.6349 45.0287 25.8256 45.3189C26.0163 45.6136 25.93 46.0035 25.6394 46.194C24.8402 46.7109 24.0637 47.2595 23.328 47.8354C23.21 47.9261 23.0737 47.9714 22.9375 47.9714ZM29.077 44.1808C28.8409 44.1808 28.6183 44.0493 28.5048 43.8226C28.3504 43.5097 28.4821 43.1288 28.8 42.9792C29.6673 42.562 30.571 42.163 31.4883 41.8003C31.8152 41.6688 32.1831 41.832 32.3102 42.1539C32.4373 42.4804 32.2784 42.8477 31.956 42.9747C31.066 43.3238 30.1895 43.7092 29.354 44.1173C29.2632 44.1581 29.1723 44.1808 29.077 44.1808ZM35.8295 41.637C35.5525 41.637 35.2982 41.4557 35.221 41.1791C35.1256 40.8435 35.3209 40.4944 35.6569 40.3992C36.5742 40.1362 37.5324 39.8959 38.4951 39.6828C38.8311 39.6057 39.1762 39.8233 39.2489 40.1634C39.3261 40.5035 39.1081 40.8435 38.7675 40.9161C37.8276 41.1247 36.8966 41.3605 36.0021 41.6144C35.943 41.6325 35.884 41.637 35.8295 41.637ZM42.8999 40.1634C42.5911 40.1634 42.3186 39.9367 42.2732 39.6193C42.2233 39.2747 42.4639 38.9528 42.8136 38.9074C43.7581 38.7759 44.7345 38.6626 45.7153 38.5719C46.0604 38.5401 46.3738 38.7941 46.4056 39.1432C46.4374 39.4923 46.1831 39.8007 45.8334 39.8324C44.8752 39.9231 43.9171 40.0319 42.9907 40.1634C42.9748 40.1634 42.9601 40.1645 42.9453 40.1657C42.9305 40.1668 42.9158 40.1679 42.8999 40.1679V40.1634ZM50.0974 39.5649C49.7568 39.5649 49.4753 39.2928 49.4662 38.9528C49.4571 38.6036 49.7296 38.3134 50.0793 38.2998C50.8558 38.2772 51.655 38.2635 52.4451 38.2635C52.7948 38.2635 53.0763 38.5447 53.0763 38.8938C53.0763 39.243 52.7948 39.5241 52.4451 39.5241C51.6641 39.5241 50.8785 39.5377 50.1156 39.5603H50.0974V39.5649ZM54.6016 33.1353C54.697 33.1897 54.806 33.2169 54.9104 33.2169C55.1329 33.2169 55.3464 33.099 55.4644 32.895C55.637 32.5912 55.528 32.2058 55.2237 32.0335L52.7035 30.6097C52.3992 30.4374 52.0132 30.5462 51.8407 30.85C51.6681 31.1538 51.7771 31.5392 52.0814 31.7115L54.6016 33.1353ZM48.3032 29.5804C48.3986 29.6348 48.5076 29.6621 48.612 29.6621C48.8345 29.6621 49.0479 29.5442 49.166 29.3401C49.3386 29.0363 49.2296 28.6509 48.9253 28.4786L46.4051 27.0549C46.1008 26.8825 45.7148 26.9914 45.5423 27.2952C45.3697 27.599 45.4787 27.9844 45.7829 28.1567L48.3032 29.5804ZM42.0048 26.0256C42.1002 26.08 42.2091 26.1072 42.3136 26.1072C42.5361 26.1072 42.7495 25.9893 42.8676 25.7853C43.0402 25.4815 42.9312 25.096 42.6269 24.9237L40.1067 23.5C39.8024 23.3277 39.4164 23.4365 39.2439 23.7403C39.0713 24.0441 39.1803 24.4295 39.4845 24.6018L42.0048 26.0256ZM35.7064 22.4707C35.8018 22.5251 35.9107 22.5523 36.0152 22.5523C36.2377 22.5523 36.4511 22.4344 36.5692 22.2304C36.7417 21.9266 36.6328 21.5412 36.3285 21.3689L33.8082 19.9451C33.504 19.7728 33.118 19.8816 32.9454 20.1854C32.7729 20.4892 32.8819 20.8746 33.1861 21.0469L35.7064 22.4707ZM29.408 18.9158C29.5033 18.9703 29.6123 18.9975 29.7168 18.9975C29.9393 18.9975 30.1527 18.8796 30.2708 18.6755C30.4433 18.3717 30.3344 17.9863 30.0301 17.814L28.2182 16.7893C27.914 16.617 27.528 16.7258 27.3554 17.0296C27.1829 17.3334 27.2919 17.7188 27.5961 17.8911L29.408 18.9158Z" fill="#F1ECDC"/>
<path fill-rule="evenodd" clip-rule="evenodd" d="M19.2045 18.8824C22.9682 18.8024 26.0072 15.719 26.0072 11.9421C26.0072 8.11516 22.8875 5.00012 19.0549 5.00012C15.2222 5.00012 12.1025 8.11063 12.1025 11.9375C12.1025 15.7645 15.2222 18.8795 19.0549 18.8795V18.884C19.105 18.884 19.1546 18.8835 19.2045 18.8824ZM18.9045 19.0279V19.034H19.0545C22.9697 19.034 26.1568 15.852 26.1568 11.9421C26.1568 8.03209 22.9697 4.8501 19.0545 4.8501C15.1393 4.8501 11.9521 8.02742 11.9521 11.9375C11.9521 15.7974 15.0581 18.9479 18.9045 19.0279ZM14.1275 59.4922C13.7118 59.3744 13.471 58.943 13.5831 58.5288L13.584 58.5255L13.5858 58.5196C13.6171 58.4131 13.9357 57.33 14.7848 55.7098C14.9861 55.3301 15.4577 55.1764 15.8415 55.3793C16.2213 55.5801 16.3751 56.0505 16.1721 56.434C15.4335 57.8462 15.1334 58.8079 15.0932 58.9367L15.0893 58.9491L15.0882 58.9526C14.9914 59.2919 14.6798 59.5193 14.3393 59.5205L14.3381 59.5205C14.2643 59.5202 14.1983 59.5087 14.1347 59.494L14.1275 59.4922ZM14.9453 58.9081C14.9453 58.9081 14.9472 58.9022 14.9502 58.8926C14.9917 58.7599 15.2947 57.7886 16.0397 56.3643C16.2032 56.056 16.0806 55.6751 15.7718 55.5119C15.463 55.3487 15.0815 55.4711 14.918 55.7794C14.0746 57.3888 13.7594 58.4623 13.7301 58.5619L13.7283 58.568C13.6375 58.9035 13.8327 59.2527 14.1688 59.3479C14.2271 59.3613 14.2809 59.3703 14.3391 59.3706C14.6152 59.3695 14.8683 59.1839 14.9453 58.9081ZM17.8334 53.0679C17.6972 53.0679 17.5609 53.0271 17.4474 52.9364C17.1704 52.7233 17.1204 52.3243 17.3339 52.0477C17.9288 51.2814 18.5781 50.5242 19.2638 49.8078C19.5045 49.5539 19.9041 49.5448 20.1584 49.7851C20.4127 50.0254 20.4218 50.4244 20.1811 50.6784C19.5272 51.363 18.9051 52.084 18.3374 52.8185C18.2148 52.9818 18.0241 53.0634 17.8379 53.0634L17.8334 53.0679ZM17.9023 53.2107L17.8951 53.2179H17.833C17.6671 53.2179 17.4973 53.1681 17.3545 53.0545C17.0121 52.7901 16.9514 52.2974 17.2147 51.9561C17.8126 51.1859 18.4656 50.4244 19.1551 49.704M17.9023 53.2107C18.1096 53.1936 18.317 53.0944 18.4562 52.9096C19.0204 52.1796 19.6389 51.4628 20.2892 50.7819C20.5863 50.4684 20.5762 49.9739 20.261 49.6761C19.9474 49.3797 19.4533 49.39 19.1551 49.704M22.3189 47.8182C22.0558 47.4773 22.1113 46.9891 22.4539 46.7199C23.2202 46.1232 24.0327 45.5444 24.8676 45.0068C25.2327 44.7713 25.7152 44.8783 25.9506 45.2365L25.9512 45.2374C26.1873 45.6023 26.0799 46.0844 25.7212 46.3194C24.9254 46.8341 24.1519 47.3807 23.4201 47.9535L23.419 47.9543C23.2754 48.0646 23.1073 48.1214 22.9371 48.1214C22.707 48.1214 22.4758 48.0197 22.3189 47.8182ZM24.9492 45.133C24.1182 45.668 23.3099 46.2439 22.547 46.8378C22.27 47.0555 22.2246 47.45 22.438 47.7266C22.5651 47.8898 22.7513 47.9714 22.9375 47.9714C23.0737 47.9714 23.21 47.9261 23.328 47.8354C24.0637 47.2595 24.8402 46.7109 25.6394 46.194C25.93 46.0035 26.0163 45.6136 25.8256 45.3189C25.6349 45.0287 25.2444 44.9425 24.9492 45.133ZM28.3699 43.8889C28.1786 43.5012 28.3416 43.0293 28.7352 42.8437C29.6051 42.4253 30.5116 42.0251 31.432 41.661C31.8371 41.4982 32.292 41.7005 32.4493 42.0988C32.606 42.5011 32.411 42.9565 32.0106 43.1142C31.1242 43.4619 30.2513 43.8457 29.4194 44.252L29.4151 44.2542C29.3086 44.302 29.1969 44.3307 29.0766 44.3307C28.7839 44.3307 28.509 44.1666 28.3699 43.8889ZM31.4883 41.8003C30.571 42.163 29.6673 42.562 28.8 42.9792C28.4821 43.1288 28.3504 43.5097 28.5048 43.8226C28.6183 44.0493 28.8409 44.1808 29.077 44.1808C29.1723 44.1808 29.2632 44.1581 29.354 44.1173C30.1895 43.7092 31.066 43.3238 31.956 42.9747C32.2784 42.8477 32.4373 42.4804 32.3102 42.1539C32.1831 41.832 31.8152 41.6688 31.4883 41.8003ZM42.9907 40.1634C43.0104 40.1606 43.0298 40.1578 43.0495 40.155C43.9575 40.0273 44.8956 39.9212 45.8334 39.8324C46.1831 39.8007 46.4374 39.4923 46.4056 39.1432C46.3738 38.7941 46.0604 38.5401 45.7153 38.5719C44.7345 38.6626 43.7581 38.7759 42.8136 38.9074C42.4639 38.9528 42.2233 39.2747 42.2732 39.6193C42.3186 39.9367 42.5911 40.1634 42.8999 40.1634V40.1679C42.9158 40.1679 42.9305 40.1668 42.9453 40.1657C42.9601 40.1645 42.9748 40.1634 42.9907 40.1634ZM42.7495 40.2988C42.4327 40.2366 42.1732 39.981 42.1244 39.6408C42.0625 39.2141 42.3603 38.8153 42.7932 38.7587M42.7495 40.2988V40.3179H42.8995C42.922 40.3179 42.9422 40.3163 42.9564 40.3152L42.9451 40.1679M49.3159 38.9566C49.3047 38.5252 49.6416 38.1667 50.073 38.1499L50.0745 38.1499C50.8522 38.1272 51.6529 38.1135 52.4447 38.1135C52.877 38.1135 53.226 38.4616 53.226 38.8938C53.226 39.326 52.877 39.6741 52.4447 39.6741C51.7088 39.6741 50.9686 39.6862 50.247 39.7066V39.7149H50.097C49.6759 39.7149 49.3272 39.3787 49.3159 38.9566ZM50.1156 39.5603C50.8785 39.5377 51.6641 39.5241 52.4451 39.5241C52.7948 39.5241 53.0763 39.243 53.0763 38.8938C53.0763 38.5447 52.7948 38.2635 52.4451 38.2635C51.655 38.2635 50.8558 38.2772 50.0793 38.2998C49.7296 38.3134 49.4571 38.6036 49.4662 38.9528C49.4739 39.2413 49.6774 39.4809 49.947 39.5468C49.9713 39.5528 49.996 39.5573 50.0212 39.5603C50.0461 39.5633 50.0718 39.5649 50.0974 39.5649V39.5603H50.1156ZM55.4644 32.895C55.3464 33.099 55.1329 33.2169 54.9104 33.2169C54.806 33.2169 54.697 33.1897 54.6016 33.1353L52.0814 31.7115C51.7771 31.5392 51.6681 31.1538 51.8407 30.85C52.0132 30.5462 52.3992 30.4374 52.7035 30.6097L55.2237 32.0335C55.528 32.2058 55.637 32.5912 55.4644 32.895ZM52.777 30.4792C52.4 30.2658 51.9228 30.401 51.7099 30.7759C51.4958 31.1528 51.6316 31.6294 52.007 31.842L54.5269 33.2656M52.777 30.4792L55.2971 31.9029C55.6726 32.1155 55.8085 32.5922 55.5945 32.969L55.5939 32.9701C55.4487 33.221 55.1855 33.3669 54.91 33.3669C54.7806 33.3669 54.6456 33.3331 54.5269 33.2656M49.166 29.3401C49.0479 29.5442 48.8345 29.6621 48.612 29.6621C48.5076 29.6621 48.3986 29.6348 48.3032 29.5804L45.7829 28.1567C45.4787 27.9844 45.3697 27.599 45.5423 27.2952C45.7148 26.9914 46.1008 26.8825 46.4051 27.0549L48.9253 28.4786C49.2296 28.6509 49.3386 29.0363 49.166 29.3401ZM46.4786 26.9243C46.1016 26.7109 45.6244 26.8461 45.4114 27.2211C45.1974 27.5979 45.3332 28.0746 45.7086 28.2872L48.2285 29.7107C48.3473 29.7785 48.482 29.812 48.6116 29.812C48.887 29.812 49.1503 29.6661 49.2955 29.4152L49.2961 29.4142C49.5101 29.0373 49.3743 28.5607 48.9989 28.3481L46.4786 26.9243ZM42.8676 25.7853C42.7495 25.9893 42.5361 26.1072 42.3136 26.1072C42.2091 26.1072 42.1002 26.08 42.0048 26.0256L39.4845 24.6018C39.1803 24.4295 39.0713 24.0441 39.2439 23.7403C39.4164 23.4365 39.8024 23.3277 40.1067 23.5L42.6269 24.9237C42.9312 25.096 43.0402 25.4815 42.8676 25.7853ZM40.1802 23.3694C39.8032 23.156 39.326 23.2913 39.113 23.6662C38.899 24.0431 39.0348 24.5197 39.4102 24.7323L41.9301 26.1558C42.0489 26.2236 42.1836 26.2572 42.3132 26.2572C42.5886 26.2572 42.8519 26.1113 42.997 25.8604L42.9976 25.8593C43.2117 25.4825 43.0759 25.0058 42.7005 24.7932L40.1802 23.3694ZM36.5692 22.2304C36.4511 22.4344 36.2377 22.5523 36.0152 22.5523C35.9107 22.5523 35.8018 22.5251 35.7064 22.4707L33.1861 21.0469C32.8819 20.8746 32.7729 20.4892 32.9454 20.1854C33.118 19.8816 33.504 19.7728 33.8082 19.9451L36.3285 21.3689C36.6328 21.5412 36.7417 21.9266 36.5692 22.2304ZM33.8818 19.8146C33.5047 19.6012 33.0276 19.7364 32.8146 20.1113C32.6006 20.4882 32.7364 20.9648 33.1118 21.1774L35.6317 22.601C35.7505 22.6687 35.8852 22.7023 36.0148 22.7023C36.2902 22.7023 36.5534 22.5564 36.6986 22.3055L36.6992 22.3045C36.9133 21.9276 36.7775 21.4509 36.402 21.2383L33.8818 19.8146ZM30.2708 18.6755C30.1527 18.8796 29.9393 18.9975 29.7168 18.9975C29.6123 18.9975 29.5033 18.9703 29.408 18.9158L27.5961 17.8911C27.2919 17.7188 27.1829 17.3334 27.3554 17.0296C27.528 16.7258 27.914 16.617 28.2182 16.7893L30.0301 17.814C30.3344 17.9863 30.4433 18.3717 30.2708 18.6755ZM28.2918 16.6587L30.1036 17.6834C30.479 17.896 30.6149 18.3727 30.4008 18.7496L30.4002 18.7506C30.255 19.0015 29.9918 19.1474 29.7164 19.1474C29.5869 19.1474 29.4522 19.1139 29.3335 19.0462L27.5219 18.0216C27.1464 17.809 27.0106 17.3323 27.2246 16.9555C27.4376 16.5805 27.9147 16.4452 28.2918 16.6587ZM19.0545 6.41516C16.0037 6.41516 13.5191 8.89201 13.5191 11.9421C13.5191 14.9921 16.0037 17.469 19.0545 17.469C22.1051 17.469 24.5898 14.9876 24.5898 11.9421C24.5898 8.89639 22.1096 6.41516 19.0545 6.41516ZM11.9474 75.1501C8.032 75.1501 4.84961 71.968 4.84961 68.0582C4.84961 64.1482 8.0366 60.9662 11.9474 60.9662C15.858 60.9662 19.0497 64.1481 19.0497 68.0582C19.0497 71.9681 15.8626 75.1501 11.9474 75.1501ZM11.9474 62.5358C8.89671 62.5358 6.41202 65.0171 6.41202 68.0627C6.41202 71.1084 8.89225 73.5896 11.9474 73.5896C15.0025 73.5896 17.4828 71.1084 17.4828 68.0627C17.4828 65.0171 14.9981 62.5358 11.9474 62.5358ZM65.4276 49.7583C60.0683 49.7583 55.7051 45.4065 55.7051 40.05C55.7051 34.6936 60.0637 30.3418 65.4276 30.3418C70.7914 30.3418 75.1501 34.6936 75.1501 40.05C75.1501 45.4064 70.7914 49.7583 65.4276 49.7583ZM65.4276 31.9114C60.9328 31.9114 57.272 35.5626 57.272 40.0546C57.272 44.5466 60.9283 48.1977 65.4276 48.1977C69.9268 48.1977 73.5831 44.5466 73.5831 40.0546C73.5831 35.5625 69.9268 31.9114 65.4276 31.9114ZM40.7696 63.6648H29.7031C29.2708 63.6648 28.9219 63.3167 28.9219 62.8845V51.8299C28.9219 51.3978 29.2708 51.0497 29.7031 51.0497H40.7696C41.2019 51.0497 41.5508 51.3978 41.5508 51.8299V62.8845C41.5508 63.3167 41.2019 63.6648 40.7696 63.6648ZM30.4843 62.0997H39.9884V52.6102H30.4843V62.0997ZM16.7018 39.6785H5.63081C5.19852 39.6785 4.84961 39.3305 4.84961 38.8983V27.8437C4.84961 27.4115 5.19852 27.0635 5.63081 27.0635H16.7018C17.1341 27.0635 17.4831 27.4115 17.4831 27.8437V38.8983C17.4831 39.3305 17.1341 39.6785 16.7018 39.6785ZM16.071 38.2635H6.26695V28.474H16.071V38.2635ZM15.9206 28.624H6.41656V38.1135H15.9206V28.624ZM67.5616 17.4652H56.4951C56.0628 17.4652 55.7139 17.1171 55.7139 16.6849V5.63036C55.7139 5.19817 56.0628 4.8501 56.4951 4.8501H67.5616C67.9939 4.8501 68.3428 5.19817 68.3428 5.63036V16.6849C68.3428 17.1171 67.9939 17.4652 67.5616 17.4652ZM57.2763 15.9046H66.7804V6.41516H57.2763V15.9046ZM60.0319 75.1501H48.9609C48.5286 75.1501 48.1797 74.802 48.1797 74.3698V63.3153C48.1797 62.8831 48.5286 62.535 48.9609 62.535H60.0319C60.4642 62.535 60.8131 62.8831 60.8131 63.3153V74.3698C60.8131 74.802 60.4642 75.1501 60.0319 75.1501ZM59.4011 73.7351H49.597V63.9456H59.4011V73.7351ZM59.2507 64.0956H49.7466V73.585H59.2507V64.0956ZM35.8291 41.787C35.4878 41.787 35.1724 41.5637 35.0762 41.2197C34.9584 40.8045 35.2001 40.3729 35.6152 40.255L35.6569 40.3992C36.5742 40.1362 37.5324 39.8959 38.4951 39.6828C38.8311 39.6057 39.1762 39.8233 39.2489 40.1634C39.3261 40.5035 39.1081 40.8435 38.7675 40.9161C37.8276 41.1247 36.8966 41.3605 36.0021 41.6144M35.8291 41.787C35.8909 41.787 35.9659 41.782 36.0441 41.7582L35.8291 41.787ZM36.0441 41.7582C36.9353 41.5053 37.8626 41.2704 38.799 41.0627C39.2206 40.9725 39.4901 40.5523 39.395 40.1311C39.3044 39.7095 38.8785 39.4411 38.4617 39.5364M13.3695 11.9421C13.3695 8.80891 15.9215 6.26518 19.0549 6.26518C22.1927 6.26518 24.7402 8.81344 24.7402 11.9421C24.7402 15.0707 22.1882 17.619 19.0549 17.619C15.9215 17.619 13.3695 15.0753 13.3695 11.9421ZM5 68.0582C5 71.8851 8.11515 75.0001 11.9478 75.0001C15.7804 75.0001 18.9001 71.8851 18.9001 68.0582C18.9001 64.2313 15.7759 61.1162 11.9478 61.1162C8.11969 61.1162 5 64.2313 5 68.0582ZM6.26241 68.0627C6.26241 64.9341 8.81447 62.3858 11.9478 62.3858C15.0811 62.3858 17.6332 64.9341 17.6332 68.0627C17.6332 71.1914 15.0856 73.7396 11.9478 73.7396C8.80993 73.7396 6.26241 71.1914 6.26241 68.0627ZM65.428 49.6083C60.1513 49.6083 55.8555 45.3234 55.8555 40.0501C55.8555 34.7767 60.1467 30.4918 65.428 30.4918C70.7092 30.4918 75.0005 34.7767 75.0005 40.0501C75.0005 45.3234 70.7092 49.6083 65.428 49.6083ZM65.428 31.7614C60.8506 31.7614 57.1224 35.4795 57.1224 40.0546C57.1224 44.6297 60.8461 48.3478 65.428 48.3478C70.0099 48.3478 73.7335 44.6297 73.7335 40.0546C73.7335 35.4795 70.0099 31.7614 65.428 31.7614ZM29.7035 63.5148H40.77C41.1196 63.5148 41.4012 63.2337 41.4012 62.8845V51.83C41.4012 51.4808 41.1196 51.1997 40.77 51.1997H29.7035C29.3538 51.1997 29.0723 51.4808 29.0723 51.83V62.8845C29.0723 63.2337 29.3538 63.5148 29.7035 63.5148ZM30.3347 62.2497V52.4602H40.1388V62.2497H30.3347ZM16.7022 39.5286H5.6312C5.28154 39.5286 5 39.2474 5 38.8983V27.8438C5 27.4946 5.28154 27.2135 5.6312 27.2135H16.7022C17.0519 27.2135 17.3334 27.4946 17.3334 27.8438V38.8983C17.3334 39.2474 17.0519 39.5286 16.7022 39.5286ZM56.4955 17.3152H67.562C67.9116 17.3152 68.1932 17.0341 68.1932 16.6849V5.63039C68.1932 5.28125 67.9116 5.00012 67.562 5.00012H56.4955C56.1458 5.00012 55.8643 5.28125 55.8643 5.63039V16.6849C55.8643 17.0341 56.1458 17.3152 56.4955 17.3152ZM57.1267 16.0547V6.26518H66.9308V16.0547H57.1267ZM60.0323 75.0001H48.9613C48.6116 75.0001 48.3301 74.719 48.3301 74.3699V63.3153C48.3301 62.9662 48.6116 62.6851 48.9613 62.6851H60.0323C60.382 62.6851 60.6635 62.9662 60.6635 63.3153V74.3699C60.6635 74.719 60.382 75.0001 60.0323 75.0001Z" fill="#F1ECDC"/>
</svg>
