<svg width="80" height="80" viewBox="0 0 80 80" fill="none" xmlns="http://www.w3.org/2000/svg">
<path fill-rule="evenodd" clip-rule="evenodd" d="M39.9973 76.1523C35.1198 76.1523 30.3824 75.1955 25.9266 73.31C25.5181 73.1374 25.329 72.6662 25.5011 72.2587C25.6737 71.8503 26.1451 71.6612 26.5526 71.8333C30.8123 73.6377 35.337 74.5492 40.0019 74.5492C59.0506 74.5492 74.5511 59.0533 74.5511 40C74.5511 20.9467 59.0553 5.4508 40.0019 5.4508C20.9486 5.4508 5.45276 20.9467 5.45276 40C5.45276 44.6695 6.36898 49.1991 8.17333 53.4588C8.34549 53.8663 8.15632 54.3376 7.7479 54.5101C7.34046 54.6823 6.86917 54.4931 6.6966 54.0847C4.80639 49.6241 3.84961 44.8821 3.84961 40C3.84961 20.0664 20.0683 3.84766 40.0019 3.84766C59.9309 3.84766 76.1496 20.0664 76.1496 40C76.1496 59.9336 59.9309 76.1523 39.9973 76.1523ZM40.0019 74.6992C40.0018 74.6992 40.0021 74.6992 40.0019 74.6992V74.6992Z" fill="#F1ECDC"/>
<path fill-rule="evenodd" clip-rule="evenodd" d="M15.9368 52.3669C15.7849 52.292 15.6555 52.1686 15.5748 52.0048C13.7196 48.2521 12.7803 44.2125 12.7803 40C12.7803 24.9894 24.9914 12.7782 40.0021 12.7782C55.0127 12.7782 67.2239 24.9894 67.2239 40C67.2239 55.0107 55.0127 67.2218 40.0021 67.2218C35.7896 67.2218 31.7499 66.2824 27.9925 64.4272C27.8286 64.3464 27.7052 64.2169 27.6303 64.0648C27.5286 63.8583 27.5165 63.6102 27.6147 63.3862V63.3797L27.6301 63.3483C27.826 62.9508 28.3089 62.7909 28.7045 62.9859C32.2381 64.7318 36.0408 65.614 40.0021 65.614C54.1277 65.614 65.6208 54.121 65.6208 39.9953C65.6208 25.8697 54.1277 14.3767 40.0021 14.3767C25.8764 14.3767 14.3834 25.8697 14.3834 39.9953C14.3834 43.9567 15.2657 47.7594 17.0116 51.293C17.2066 51.6887 17.0466 52.1714 16.6491 52.3673C16.4164 52.482 16.1537 52.4739 15.9368 52.3669ZM65.7708 39.9953C65.7708 54.2038 54.2106 65.764 40.0021 65.764C40.002 65.764 40.0022 65.764 40.0021 65.764C54.2106 65.764 65.7708 54.2038 65.7708 39.9953Z" fill="#F1ECDC"/>
<path fill-rule="evenodd" clip-rule="evenodd" d="M31.2054 55.1285L31.2076 55.129C31.4146 54.7433 31.8946 54.5881 32.2858 54.795C34.6509 56.0353 37.3173 56.6881 40.0022 56.6881C49.2049 56.6881 56.6904 49.2026 56.6904 39.9999C56.6904 30.7973 49.2049 23.3118 40.0022 23.3118C30.7996 23.3118 23.3141 30.7973 23.3141 39.9999C23.3141 42.68 23.9714 45.3464 25.2072 47.7117C25.4148 48.1044 25.2578 48.5863 24.869 48.7921C24.4763 49.0001 23.9938 48.8425 23.7879 48.4537C22.4267 45.8584 21.7109 42.9339 21.7109 39.9953C21.7109 29.9076 29.9146 21.704 40.0022 21.704C50.0899 21.704 58.2935 29.9076 58.2935 39.9953C58.2935 50.0829 50.0852 58.2866 40.0022 58.2866C37.0634 58.2866 34.1383 57.5657 31.5433 56.2093C31.1544 56.0034 30.9974 55.5212 31.2054 55.1285ZM31.3404 55.1986L31.3399 55.1997L31.3383 55.2026C31.4534 54.9852 31.6735 54.8582 31.9028 54.8532C31.6866 54.8578 31.4785 54.9715 31.3589 55.1666C31.3525 55.177 31.3463 55.1877 31.3404 55.1986ZM40.0022 56.8381C40.0021 56.8381 40.0024 56.8381 40.0022 56.8381V56.8381ZM23.9211 48.384C22.5713 45.8104 21.8613 42.9099 21.8613 39.9953C21.8613 29.9905 29.9978 21.854 40.0026 21.854C40.0025 21.854 40.0028 21.854 40.0026 21.854C29.9978 21.854 21.8613 29.9905 21.8613 39.9953C21.8613 42.9099 22.5713 45.8104 23.9211 48.384ZM31.3379 55.1986L31.336 55.2023L31.3355 55.2033C31.3299 55.2141 31.3246 55.225 31.3196 55.236C31.1799 55.5464 31.3083 55.9151 31.6135 56.0768C31.2961 55.9087 31.1704 55.5161 31.3379 55.1986Z" fill="#F1ECDC"/>
<path fill-rule="evenodd" clip-rule="evenodd" d="M40.0024 47.7529C39.6635 47.7529 39.324 47.73 38.9885 47.6886C38.5492 47.6373 38.1504 47.9404 38.0928 48.3784C38.0352 48.816 38.3461 49.218 38.7827 49.2754C39.1856 49.3276 39.5937 49.3561 40.0024 49.3561C45.1623 49.3561 49.3631 45.1553 49.3631 39.9953C49.3631 34.8354 45.1671 30.6345 40.0024 30.6345C34.8377 30.6345 30.6416 34.8354 30.6416 39.9953C30.6416 40.4038 30.6701 40.8168 30.7223 41.2153C30.7797 41.6519 31.1817 41.9625 31.6192 41.9049C32.0559 41.8474 32.3663 41.4447 32.3088 41.0072C32.2631 40.6743 32.2447 40.3356 32.2447 39.9953C32.2447 35.7202 35.7228 32.2377 40.0024 32.2377C44.282 32.2377 47.76 35.7156 47.76 39.9953C47.76 44.275 44.282 47.7529 40.0024 47.7529ZM40.0024 47.9029C40.0022 47.9029 40.0025 47.9029 40.0024 47.9029V47.9029Z" fill="#F1ECDC"/>
<path fill-rule="evenodd" clip-rule="evenodd" d="M4.46415 64.6955L13.207 66.7853L15.297 75.5289C15.3656 75.809 15.5772 76.0328 15.8577 76.1135C15.9373 76.1378 16.0092 76.143 16.0779 76.143C16.2845 76.143 16.4912 76.0627 16.6463 75.9076L24.4699 68.084C24.6659 67.888 24.7456 67.6006 24.6825 67.3312L22.7296 59.1623L22.5824 58.5468L39.4852 41.6441C39.646 41.6961 39.8193 41.7288 40.0016 41.7288C40.9579 41.7288 41.735 40.9516 41.735 39.9954C41.735 39.0391 40.9579 38.262 40.0016 38.262C39.0453 38.262 38.2682 39.0391 38.2682 39.9954C38.2682 40.1776 38.3009 40.3509 38.3529 40.5118L21.4492 57.4154L20.8371 57.2691L12.6604 55.3142C12.391 55.2512 12.1042 55.3311 11.9082 55.527L4.08469 63.3506C3.87765 63.5576 3.80339 63.8563 3.87781 64.1311L3.87837 64.1331C3.95873 64.4144 4.18357 64.6268 4.46415 64.6955ZM6.22861 63.4712L12.7243 56.9756L20.1167 58.7433L13.621 65.239L6.22861 63.4712ZM23.0214 67.2727L16.5257 73.7683L14.758 66.3759L21.2536 59.8803L23.0214 67.2727Z" fill="#F1ECDC"/>
</svg>
