<svg width="46" height="56" viewBox="0 0 46 56" fill="none" xmlns="http://www.w3.org/2000/svg">
<path d="M18.1371 24.8496C19.4653 24.8496 20.559 26.2559 20.559 27.9746C20.559 29.6934 19.4653 31.0996 18.1371 31.0996C16.7309 31.0996 15.6371 29.6152 15.6371 27.9746C15.6371 26.2559 16.7309 24.8496 18.1371 24.8496ZM18.1371 29.8496C18.7621 29.8496 19.3871 28.9902 19.309 27.9746C19.309 26.959 18.7621 26.1777 18.1371 26.1777C17.5121 26.1777 16.8871 27.0371 16.8871 27.9746C16.8871 28.9902 17.434 29.8496 18.1371 29.8496ZM44.3871 46.7246C44.6996 46.7246 45.0121 47.0371 45.0121 47.3496C45.0121 47.7402 44.6996 47.9746 44.309 47.9746H39.3871C39.0746 47.9746 38.7621 47.7402 38.7621 47.3496V16.0996C38.7621 15.084 37.9809 14.2246 36.8871 14.2246H28.1371C27.9028 14.2246 27.5903 13.9902 27.5903 13.5996C27.5903 13.2871 27.8246 12.9746 28.1371 12.9746H36.8871C38.6059 12.9746 40.0121 14.3809 40.0121 16.0996V46.7246H44.3871ZM23.7621 8.59961C24.5434 9.22461 25.0121 10.084 24.7778 11.0996V47.3496C24.7778 47.7402 24.5434 47.9746 24.2309 47.9746H0.559017C0.246517 47.9746 0.012142 47.7402 0.012142 47.4277C-0.065983 47.0371 0.246517 46.8027 0.559017 46.8027L5.01214 46.7246V14.6934C5.01214 13.2871 5.87152 12.1152 7.19964 11.7246L21.2621 8.13086C22.1215 7.89648 23.059 8.05273 23.7621 8.59961ZM23.7621 46.7246H23.684V11.0996C23.684 10.4746 23.3715 9.92773 22.9809 9.61523C22.5121 9.30273 22.0434 9.14648 21.4965 9.30273L7.51214 12.9746C6.73089 13.1309 6.26214 13.9121 6.26214 14.6934V46.7246H23.7621Z" fill="#DFDECD"/>
</svg>
