<svg width="35" height="56" viewBox="0 0 35 56" fill="none" xmlns="http://www.w3.org/2000/svg">
<path d="M7.5 18C7.5 12.5312 11.9531 8 17.5 8C22.9688 8 27.5 12.5312 27.5 18C27.5 23.5469 22.9688 28 17.5 28C11.9531 28 7.5 23.5469 7.5 18ZM26.25 18C26.25 13.2344 22.2656 9.25 17.5 9.25C12.6562 9.25 8.75 13.2344 8.75 18C8.75 22.8438 12.6562 26.75 17.5 26.75C22.2656 26.75 26.25 22.8438 26.25 18ZM13.75 32.1406C13.9062 31.9062 14.1406 31.75 14.375 31.75H20.625C20.7812 31.75 21.0156 31.9062 21.1719 32.1406C21.25 32.2969 21.25 32.6094 21.0938 32.7656L18.2031 36.8281L20 40.5L23.6719 33.0781C30 33.7812 35 39.0938 35 45.6562C35 46.9844 33.9062 48 32.5781 48H2.34375C1.01562 48 0 46.9844 0 45.6562C0 39.0938 4.92188 33.7812 11.25 33.0781L14.9219 40.5L16.7188 36.8281L13.8281 32.7656C13.6719 32.6094 13.6719 32.2969 13.75 32.1406ZM15.5469 33L17.5 35.7344L19.375 33H15.5469ZM10.5469 34.4844C5.23438 35.4219 1.25 40.0312 1.25 45.6562C1.25 46.2812 1.71875 46.75 2.34375 46.75H16.7188L10.5469 34.4844ZM15.625 41.8281L17.5 45.5L19.2969 41.8281L17.5 38.1562L15.625 41.8281ZM33.75 45.6562C33.75 40.0312 29.6875 35.4219 24.375 34.4844L18.2031 46.75H32.5781C33.2031 46.75 33.75 46.2812 33.75 45.6562Z" fill="#DFDECD"/>
</svg>
