<svg width="45" height="56" viewBox="0 0 45 56" fill="none" xmlns="http://www.w3.org/2000/svg">
<path d="M44.375 44.25C44.6875 44.25 45 44.5625 45 44.875C45 45.2656 44.6875 45.5 44.375 45.5H0.625C0.234375 45.5 0 45.2656 0 44.875C0 44.5625 0.234375 44.25 0.625 44.25H2.5V12.375C2.5 11.3594 3.28125 10.5 4.375 10.5H40.625C41.6406 10.5 42.5 11.3594 42.5 12.375V44.25H44.375ZM21.25 44.25H33.75V39.25H21.25V44.25ZM33.75 38C34.375 38 35 38.625 35 39.25V44.25H41.25V12.375C41.25 12.0625 40.9375 11.75 40.625 11.75H4.375C3.98438 11.75 3.75 12.0625 3.75 12.375V44.25H20V39.25C20 38.625 20.5469 38 21.25 38H33.75Z" fill="#DFDECD"/>
</svg>
