<svg width="35" height="56" viewBox="0 0 35 56" fill="none" xmlns="http://www.w3.org/2000/svg">
<path d="M7.5 23V18C7.5 12.5312 11.9531 8 17.5 8C22.9688 8 27.5 12.5312 27.5 18V23H30C32.7344 23 35 25.2656 35 28V43C35 45.8125 32.7344 48 30 48H5C2.1875 48 0 45.8125 0 43V28C0 25.2656 2.1875 23 5 23H7.5ZM8.75 23H26.25V18C26.25 13.2344 22.2656 9.25 17.5 9.25C12.6562 9.25 8.75 13.2344 8.75 18V23ZM5 24.25C2.89062 24.25 1.25 25.9688 1.25 28V43C1.25 45.1094 2.89062 46.75 5 46.75H30C32.0312 46.75 33.75 45.1094 33.75 43V28C33.75 25.9688 32.0312 24.25 30 24.25H5Z" fill="#DFDECD"/>
</svg>
