<svg width="40" height="56" viewBox="0 0 40 56" fill="none" xmlns="http://www.w3.org/2000/svg">
<path d="M19.375 16.125C19.375 15.8125 19.6094 15.5 20 15.5C20.3125 15.5 20.625 15.8125 20.625 16.125V27.6875L27.8125 32.5312C28.125 32.6875 28.2031 33.0781 27.9688 33.3906C27.8125 33.7031 27.4219 33.7812 27.1094 33.5469L19.6094 28.5469C19.4531 28.4688 19.2969 28.2344 19.2969 28L19.375 16.125ZM20 8C31.0156 8 40 16.9844 40 28C40 39.0938 31.0156 48 20 48C8.90625 48 0 39.0938 0 28C0 16.9844 8.90625 8 20 8ZM1.25 28C1.25 38.3906 9.60938 46.75 20 46.75C30.3125 46.75 38.75 38.3906 38.75 28C38.75 17.6875 30.3125 9.25 20 9.25C9.60938 9.25 1.25 17.6875 1.25 28Z" fill="#DFDECD"/>
</svg>
