<svg width="50" height="56" viewBox="0 0 50 56" fill="none" xmlns="http://www.w3.org/2000/svg">
<path d="M45 25.5C47.7344 25.5 50 27.7656 50 30.5V43C50 44.4062 48.8281 45.5 47.5 45.5H42.5C41.0938 45.5 40 44.4062 40 43V41.75H10V43C10 44.4062 8.82812 45.5 7.5 45.5H2.5C1.09375 45.5 0 44.4062 0 43V30.5C0 27.7656 2.1875 25.5 5 25.5C7.73438 25.5 10 27.7656 10 30.5H40C40 27.7656 42.1875 25.5 45 25.5ZM8.67188 43V30.5C8.67188 28.4688 6.95312 26.75 4.92188 26.75C2.8125 26.75 1.17188 28.4688 1.17188 30.5V43C1.17188 43.7031 1.71875 44.25 2.42188 44.25H7.5C8.04688 44.25 8.67188 43.7031 8.67188 43ZM39.9219 40.5V31.75H9.92188V40.5H39.9219ZM48.6719 43H48.75V30.5C48.75 28.4688 47.0312 26.75 45 26.75C42.8906 26.75 41.25 28.4688 41.25 30.5V43C41.25 43.7031 41.7969 44.25 42.5 44.25H47.4219C48.0469 44.25 48.6719 43.7031 48.6719 43ZM5.54688 23C5.23438 23 4.92188 22.7656 4.92188 22.375V20.5C4.92188 15.0312 9.375 10.5 14.9219 10.5H35C40.4688 10.5 45 15.0312 45 20.5L44.9219 22.375C44.9219 22.7656 44.6094 23 44.2969 23C43.9062 23 43.6719 22.7656 43.6719 22.375V20.5C43.6719 15.7344 39.6875 11.75 34.9219 11.75H14.9219C10.0781 11.75 6.17188 15.7344 6.17188 20.5V22.375C6.17188 22.7656 5.85938 23 5.54688 23Z" fill="#DFDECD"/>
</svg>
