<svg width="30" height="56" viewBox="0 0 30 56" fill="none" xmlns="http://www.w3.org/2000/svg">
<path d="M10.625 26.125C11.6406 26.125 12.5 26.9844 12.5 28V30.5C12.5 31.5938 11.6406 32.375 10.625 32.375H8.125C7.03125 32.375 6.25 31.5938 6.25 30.5V28C6.25 26.9844 7.03125 26.125 8.125 26.125H10.625ZM7.5 30.5C7.5 30.8906 7.73438 31.125 8.125 31.125H10.625C10.9375 31.125 11.25 30.8906 11.25 30.5V28C11.25 27.6875 10.9375 27.375 10.625 27.375H8.125C7.73438 27.375 7.5 27.6875 7.5 28V30.5ZM17.5 28C17.5 26.9844 18.2812 26.125 19.375 26.125H21.875C22.8906 26.125 23.75 26.9844 23.75 28V30.5C23.75 31.5938 22.8906 32.375 21.875 32.375H19.375C18.2812 32.375 17.5 31.5938 17.5 30.5V28ZM19.375 27.375C18.9844 27.375 18.75 27.6875 18.75 28V30.5C18.75 30.8906 18.9844 31.125 19.375 31.125H21.875C22.1875 31.125 22.5 30.8906 22.5 30.5V28C22.5 27.6875 22.1875 27.375 21.875 27.375H19.375ZM10.625 16.125C11.6406 16.125 12.5 16.9844 12.5 18V20.5C12.5 21.5938 11.6406 22.375 10.625 22.375H8.125C7.03125 22.375 6.25 21.5938 6.25 20.5V18C6.25 16.9844 7.03125 16.125 8.125 16.125H10.625ZM7.5 20.5C7.5 20.8906 7.73438 21.125 8.125 21.125H10.625C10.9375 21.125 11.25 20.8906 11.25 20.5V18C11.25 17.6875 10.9375 17.375 10.625 17.375H8.125C7.73438 17.375 7.5 17.6875 7.5 18V20.5ZM17.5 18C17.5 16.9844 18.2812 16.125 19.375 16.125H21.875C22.8906 16.125 23.75 16.9844 23.75 18V20.5C23.75 21.5938 22.8906 22.375 21.875 22.375H19.375C18.2812 22.375 17.5 21.5938 17.5 20.5V18ZM19.375 17.375C18.9844 17.375 18.75 17.6875 18.75 18V20.5C18.75 20.8906 18.9844 21.125 19.375 21.125H21.875C22.1875 21.125 22.5 20.8906 22.5 20.5V18C22.5 17.6875 22.1875 17.375 21.875 17.375H19.375ZM3.75 48C1.64062 48 0 46.3594 0 44.25V11.75C0 9.71875 1.64062 8 3.75 8H26.25C28.2812 8 30 9.71875 30 11.75V44.25C30 46.3594 28.2812 48 26.25 48H3.75ZM1.25 11.75V44.25C1.25 45.6562 2.34375 46.75 3.75 46.75H11.25V40.5C11.25 38.4688 12.8906 36.75 15 36.75C17.0312 36.75 18.75 38.4688 18.75 40.5V46.75H26.25C27.5781 46.75 28.75 45.6562 28.75 44.25V11.75C28.75 10.4219 27.5781 9.25 26.25 9.25H3.75C2.34375 9.25 1.25 10.4219 1.25 11.75ZM12.5 46.75H17.5V40.5C17.5 39.1719 16.3281 38 15 38C13.5938 38 12.5 39.1719 12.5 40.5V46.75Z" fill="#DFDECD"/>
</svg>
