<svg width="40" height="56" viewBox="0 0 40 56" fill="none" xmlns="http://www.w3.org/2000/svg">
<path d="M0 18C0 15.2656 2.1875 13 5 13H35C37.7344 13 40 15.2656 40 18V38C40 40.8125 37.7344 43 35 43H5C2.1875 43 0 40.8125 0 38V18ZM1.25 18V20.2656L17.1875 33.1562C18.8281 34.4062 21.0938 34.4062 22.7344 33.1562L38.75 20.2656V18C38.75 15.9688 37.0312 14.25 35 14.25H4.92188C2.89062 14.25 1.17188 15.9688 1.17188 18H1.25ZM1.25 21.8281V38C1.25 40.1094 2.89062 41.75 5 41.75H35C37.0312 41.75 38.75 40.1094 38.75 38V21.8281L23.5156 34.0938C21.4062 35.8125 18.5156 35.8125 16.4062 34.0938L1.25 21.8281Z" fill="#DFDECD"/>
</svg>
