<svg width="50" height="56" viewBox="0 0 50 56" fill="none" xmlns="http://www.w3.org/2000/svg">
<path d="M24.9414 35.4707C27.7539 35.4707 29.9414 37.7363 29.9414 40.4707C29.9414 43.2051 27.6758 45.4707 24.9414 45.4707C22.1289 45.4707 19.9414 43.2051 19.9414 40.4707C19.9414 37.6582 22.1289 35.4707 24.9414 35.4707ZM24.9414 44.2207C27.0508 44.2207 28.6914 42.5801 28.6914 40.4707C28.6914 38.4395 26.9727 36.7207 24.9414 36.7207C22.832 36.7207 21.1914 38.3613 21.1914 40.4707C21.1914 42.502 22.832 44.2207 24.9414 44.2207ZM49.7852 20.7832C50.0195 21.0176 50.0195 21.4082 49.7852 21.6426C49.707 21.7988 49.5508 21.877 49.3945 21.877C49.1602 21.877 49.0039 21.7988 48.9258 21.6426C35.7227 8.51758 14.2383 8.51758 1.03516 21.6426C0.800781 21.877 0.410156 21.877 0.175781 21.6426C-0.0585938 21.4082 -0.0585938 21.0176 0.175781 20.7832C13.8477 7.11133 36.1133 7.11133 49.7852 20.7832ZM25.0195 22.9707C30.8789 22.9707 36.3477 25.3145 40.4883 29.4551C40.7227 29.6895 40.7227 30.0801 40.4883 30.3145C40.4102 30.4707 40.2539 30.4707 40.0977 30.4707C39.9414 30.4707 39.7852 30.4707 39.6289 30.3145C35.7227 26.4082 30.4883 24.2207 25.0195 24.2207C19.4727 24.2207 14.2383 26.4082 10.332 30.2363C10.0977 30.4707 9.70703 30.4707 9.47266 30.2363C9.23828 30.002 9.23828 29.6113 9.47266 29.377C13.6133 25.2363 19.082 22.9707 25.0195 22.9707Z" fill="#DFDECD"/>
</svg>
