<svg width="38" height="56" viewBox="0 0 38 56" fill="none" xmlns="http://www.w3.org/2000/svg">
<path d="M34.4564 14.4258C36.1752 15.207 37.5033 16.8477 37.5033 18.8789C37.4252 26.6914 34.222 40.832 20.7845 47.3164C19.4564 47.9414 17.972 47.9414 16.6439 47.3164C3.2064 40.832 0.00327731 26.6914 0.00327731 18.8789C-0.0748477 16.8477 1.25328 15.207 2.97203 14.4258L16.8002 8.56641C18.0502 8.09766 19.4564 8.09766 20.7064 8.56641L34.4564 14.4258ZM19.3783 46.457C19.6127 46.3789 19.9252 46.3008 20.2377 46.1445C33.0502 40.0508 36.1752 26.457 36.2533 18.8789C36.2533 17.3945 35.3158 16.1445 33.9877 15.5977L20.1595 9.73828C19.9252 9.66016 19.6127 9.58203 19.3783 9.50391V46.457ZM18.1283 9.50391C17.8158 9.58203 17.5033 9.66016 17.2689 9.73828L3.44078 15.5977C2.11265 16.1445 1.17515 17.3945 1.25328 18.8789C1.25328 26.457 4.37828 40.0508 17.1908 46.1445C17.5033 46.3008 17.8158 46.3789 18.1283 46.457V9.50391Z" fill="#DFDECD"/>
</svg>
