<svg width="50" height="56" viewBox="0 0 50 56" fill="none" xmlns="http://www.w3.org/2000/svg">
<path d="M42.5 10.5C46.6406 10.5 50 13.8594 50 18C50 22.2188 46.6406 25.5 42.5 25.5H37.5V30.5781C37.4219 34.7188 34.0625 38 30 38H15C10.8594 38 7.5 34.6406 7.5 30.5V12.375C7.5 11.3594 8.28125 10.5 9.375 10.5H42.5ZM36.25 30.5781V11.75H9.375C8.98438 11.75 8.75 12.0625 8.75 12.375V30.5C8.75 34.0156 11.4844 36.75 15 36.75H30C33.3594 36.75 36.1719 34.0156 36.25 30.5781ZM42.5 24.25C45.9375 24.25 48.75 21.5156 48.75 18C48.75 14.5625 45.9375 11.75 42.5 11.75H37.5V24.25H42.5ZM44.375 40.5C44.6875 40.5 45 40.8125 45 41.125C45 43.5469 42.9688 45.5 40.625 45.5H4.375C1.95312 45.5 0 43.5469 0 41.125C0 40.8125 0.234375 40.5 0.625 40.5C0.9375 40.5 1.25 40.8125 1.25 41.125C1.25 42.9219 2.57812 44.25 4.375 44.25H40.625C42.3438 44.25 43.75 42.9219 43.75 41.125C43.75 40.8125 43.9844 40.5 44.375 40.5Z" fill="#DFDECD"/>
</svg>
