<svg width="40" height="56" viewBox="0 0 40 56" fill="none" xmlns="http://www.w3.org/2000/svg">
<path d="M20 8C31.0156 8 40 16.9844 40 28C40 39.0938 31.0156 48 20 48C8.90625 48 0 39.0938 0 28C0 16.9844 8.90625 8 20 8ZM20 46.75C22.0312 46.75 24.1406 45.1094 25.9375 41.5938C26.7969 39.875 27.5 37.8438 27.9688 35.5H11.9531C12.4219 37.8438 13.125 39.875 13.9844 41.5938C15.7812 45.1094 17.8906 46.75 19.9219 46.75H20ZM11.7188 34.25H28.2031C28.5156 32.2969 28.75 30.2656 28.75 28C28.75 25.8125 28.5156 23.7031 28.2031 21.75H11.7188C11.4062 23.7031 11.25 25.8125 11.25 28C11.25 30.2656 11.4062 32.2969 11.7188 34.25ZM27.9688 20.5C27.5 18.2344 26.7969 16.2031 25.9375 14.4844C24.1406 10.9688 22.0312 9.25 20 9.25C17.8906 9.25 15.7812 10.9688 13.9844 14.4844C13.125 16.2031 12.4219 18.2344 11.9531 20.5H27.9688ZM29.4531 21.75C29.7656 23.7812 30 25.8906 30 28C30 30.1875 29.7656 32.2969 29.4531 34.25H37.6562C38.3594 32.2969 38.75 30.2656 38.75 28C38.75 25.8125 38.3594 23.7031 37.6562 21.75H29.4531ZM23.9844 9.71875C26.3281 11.8281 28.2812 15.7344 29.2188 20.5H37.1875C34.7656 15.1094 29.9219 11.0469 23.9844 9.71875ZM15.9375 9.71875C10 11.0469 5.15625 15.1094 2.73438 20.5H10.7031C11.6406 15.7344 13.5938 11.8281 15.9375 9.71875ZM1.25 28C1.25 30.2656 1.5625 32.2969 2.26562 34.25H10.4688C10.1562 32.2969 10 30.1875 10 28C10 25.8906 10.1562 23.7812 10.4688 21.75H2.26562C1.5625 23.7031 1.25 25.8125 1.25 28ZM37.1875 35.5H29.2188C28.2812 40.3438 26.3281 44.25 23.9844 46.3594C29.9219 45.0312 34.7656 40.9688 37.1875 35.5ZM10.7031 35.5H2.73438C5.15625 40.9688 10 45.0312 15.9375 46.3594C13.5938 44.25 11.6406 40.3438 10.7031 35.5Z" fill="#DFDECD"/>
</svg>
